<svg version="1.1" xmlns="http://www.w3.org/2000/svg" viewBox="0 0 1060 840" width="1060" height="840">
  <!-- svg-source:excalidraw -->
  
  <defs>
    <style>
      @font-face {
        font-family: "Virgil";
        src: url("/dist/excalidraw-assets/Virgil.woff2");
      }
      @font-face {
        font-family: "Cascadia";
        src: url("/dist/excalidraw-assets/Cascadia.woff2");
      }
      @font-face {
        font-family: "GoogleSans_Regular";
        src: url("/dist/excalidraw-assets/GoogleSans_Regular.ttf");
      }
      @font-face {
        font-family: "GoogleSans_Medium";
        src: url("/dist/excalidraw-assets/GoogleSans_Medium.ttf");
      }
    </style>
  </defs>
  <rect x="0" y="0" width="1060" height="840" fill="#ffffff"></rect><g stroke-linecap="round" transform="translate(10 10) rotate(0 520 410)"><path d="M0 0 L1040 0 L1040 820 L0 820" stroke="none" stroke-width="0" fill="#FFF"></path><path d="M0 0 C302.64 0, 605.28 0, 1040 0 M0 0 C405.91 0, 811.81 0, 1040 0 M1040 0 C1040 224.04, 1040 448.09, 1040 820 M1040 0 C1040 278.94, 1040 557.88, 1040 820 M1040 820 C801 820, 561.99 820, 0 820 M1040 820 C824.69 820, 609.38 820, 0 820 M0 820 C0 564.13, 0 308.26, 0 0 M0 820 C0 587.95, 0 355.89, 0 0" stroke="#d5d7dc" stroke-width="2" fill="none"></path></g><g stroke-linecap="round" transform="translate(30 210) rotate(0 500 300)"><path d="M0 0 L1000 0 L1000 600 L0 600" stroke="none" stroke-width="0" fill="#f1f3f4"></path><path d="M0 0 C248.82 0, 497.64 0, 1000 0 M0 0 C324.14 0, 648.28 0, 1000 0 M1000 0 C1000 145.23, 1000 290.46, 1000 600 M1000 0 C1000 121.11, 1000 242.21, 1000 600 M1000 600 C769.23 600, 538.46 600, 0 600 M1000 600 C612.04 600, 224.08 600, 0 600 M0 600 C0 366.93, 0 133.86, 0 0 M0 600 C0 440.17, 0 280.34, 0 0" stroke="#FFFFFF" stroke-width="2" fill="none"></path></g><g stroke-opacity="0.8" fill-opacity="0.8" transform="translate(50 230) rotate(0 95.5 11.5)"><text x="0" y="19" font-family="Helvetica, Segoe UI Emoji" font-size="20px" fill="#202124" text-anchor="start" style="white-space: pre;" direction="ltr">Google Cloud Project</text></g><g stroke-linecap="round" transform="translate(50 270) rotate(0 480 260)"><path d="M0 0 L960 0 L960 520 L0 520" stroke="none" stroke-width="0" fill="#d2e3fc"></path><path d="M0 0 C307.79 0, 615.58 0, 960 0 M0 0 C259.3 0, 518.61 0, 960 0 M960 0 C960 176.54, 960 353.08, 960 520 M960 0 C960 113.58, 960 227.16, 960 520 M960 520 C658.05 520, 356.09 520, 0 520 M960 520 C750.86 520, 541.72 520, 0 520 M0 520 C0 331.93, 0 143.85, 0 0 M0 520 C0 325.58, 0 131.17, 0 0" stroke="#4285f4" stroke-width="2" fill="none"></path></g><g stroke-opacity="0.8" fill-opacity="0.8" transform="translate(490 310) rotate(0 53 9.5)"><text x="0" y="15" font-family="Helvetica, Segoe UI Emoji" font-size="16px" fill="#202124" text-anchor="start" style="white-space: pre;" direction="ltr">APPLICATION</text></g><g stroke-linecap="round" transform="translate(30 30) rotate(0 500 80)"><path d="M0 0 L1000 0 L1000 160 L0 160" stroke="none" stroke-width="0" fill="#d2e3fc"></path><path d="M0 0 C338.52 0, 677.05 0, 1000 0 M0 0 C387.47 0, 774.94 0, 1000 0 M1000 0 C1000 37.72, 1000 75.44, 1000 160 M1000 0 C1000 57.21, 1000 114.42, 1000 160 M1000 160 C610.24 160, 220.48 160, 0 160 M1000 160 C626.3 160, 252.6 160, 0 160 M0 160 C0 112.07, 0 64.13, 0 0 M0 160 C0 100.42, 0 40.85, 0 0" stroke="#4285f4" stroke-width="2" fill="none"></path></g><g stroke-opacity="0.8" fill-opacity="0.8" transform="translate(490 50) rotate(0 23.5 10)"><text x="0" y="16" font-family="Helvetica, Segoe UI Emoji" font-size="16.444444444444446px" fill="#202124" text-anchor="start" style="white-space: pre;" direction="ltr">USER</text></g><g stroke-linecap="round" transform="translate(190 310) rotate(0 16 16)"><path d="M32 16 C32 16.93, 31.92 17.87, 31.76 18.78 C31.6 19.69, 31.35 20.6, 31.04 21.47 C30.72 22.34, 30.32 23.2, 29.86 24 C29.39 24.8, 28.85 25.58, 28.26 26.28 C27.66 26.99, 26.99 27.66, 26.28 28.26 C25.58 28.85, 24.8 29.39, 24 29.86 C23.2 30.32, 22.34 30.72, 21.47 31.04 C20.6 31.35, 19.69 31.6, 18.78 31.76 C17.87 31.92, 16.93 32, 16 32 C15.07 32, 14.13 31.92, 13.22 31.76 C12.31 31.6, 11.4 31.35, 10.53 31.04 C9.66 30.72, 8.8 30.32, 8 29.86 C7.2 29.39, 6.42 28.85, 5.72 28.26 C5.01 27.66, 4.34 26.99, 3.74 26.28 C3.15 25.58, 2.61 24.8, 2.14 24 C1.68 23.2, 1.28 22.34, 0.96 21.47 C0.65 20.6, 0.4 19.69, 0.24 18.78 C0.08 17.87, 0 16.93, 0 16 C0 15.07, 0.08 14.13, 0.24 13.22 C0.4 12.31, 0.65 11.4, 0.96 10.53 C1.28 9.66, 1.68 8.8, 2.14 8 C2.61 7.2, 3.15 6.42, 3.74 5.72 C4.34 5.01, 5.01 4.34, 5.72 3.74 C6.42 3.15, 7.2 2.61, 8 2.14 C8.8 1.68, 9.66 1.28, 10.53 0.96 C11.4 0.65, 12.31 0.4, 13.22 0.24 C14.13 0.08, 15.07 0, 16 0 C16.93 0, 17.87 0.08, 18.78 0.24 C19.69 0.4, 20.6 0.65, 21.47 0.96 C22.34 1.28, 23.2 1.68, 24 2.14 C24.8 2.61, 25.58 3.15, 26.28 3.74 C26.99 4.34, 27.66 5.01, 28.26 5.72 C28.85 6.42, 29.39 7.2, 29.86 8 C30.32 8.8, 30.72 9.66, 31.04 10.53 C31.35 11.4, 31.6 12.31, 31.76 13.22 C31.92 14.13, 31.96 15.54, 32 16 C32.04 16.46, 32.04 15.54, 32 16" stroke="none" stroke-width="0" fill="#202124"></path><path d="M32 16 C32 16.93, 31.92 17.87, 31.76 18.78 C31.6 19.69, 31.35 20.6, 31.04 21.47 C30.72 22.34, 30.32 23.2, 29.86 24 C29.39 24.8, 28.85 25.58, 28.26 26.28 C27.66 26.99, 26.99 27.66, 26.28 28.26 C25.58 28.85, 24.8 29.39, 24 29.86 C23.2 30.32, 22.34 30.72, 21.47 31.04 C20.6 31.35, 19.69 31.6, 18.78 31.76 C17.87 31.92, 16.93 32, 16 32 C15.07 32, 14.13 31.92, 13.22 31.76 C12.31 31.6, 11.4 31.35, 10.53 31.04 C9.66 30.72, 8.8 30.32, 8 29.86 C7.2 29.39, 6.42 28.85, 5.72 28.26 C5.01 27.66, 4.34 26.99, 3.74 26.28 C3.15 25.58, 2.61 24.8, 2.14 24 C1.68 23.2, 1.28 22.34, 0.96 21.47 C0.65 20.6, 0.4 19.69, 0.24 18.78 C0.08 17.87, 0 16.93, 0 16 C0 15.07, 0.08 14.13, 0.24 13.22 C0.4 12.31, 0.65 11.4, 0.96 10.53 C1.28 9.66, 1.68 8.8, 2.14 8 C2.61 7.2, 3.15 6.42, 3.74 5.72 C4.34 5.01, 5.01 4.34, 5.72 3.74 C6.42 3.15, 7.2 2.61, 8 2.14 C8.8 1.68, 9.66 1.28, 10.53 0.96 C11.4 0.65, 12.31 0.4, 13.22 0.24 C14.13 0.08, 15.07 0, 16 0 C16.93 0, 17.87 0.08, 18.78 0.24 C19.69 0.4, 20.6 0.65, 21.47 0.96 C22.34 1.28, 23.2 1.68, 24 2.14 C24.8 2.61, 25.58 3.15, 26.28 3.74 C26.99 4.34, 27.66 5.01, 28.26 5.72 C28.85 6.42, 29.39 7.2, 29.86 8 C30.32 8.8, 30.72 9.66, 31.04 10.53 C31.35 11.4, 31.6 12.31, 31.76 13.22 C31.92 14.13, 31.96 15.54, 32 16 C32.04 16.46, 32.04 15.54, 32 16" stroke="#202124" stroke-width="2" fill="none"></path></g><g transform="translate(200.5 318) rotate(0 4.5 8)"><text x="4.5" y="13" font-family="Helvetica, Segoe UI Emoji" font-size="14px" fill="#FFFFFF" text-anchor="middle" style="white-space: pre;" direction="ltr">1</text></g><g stroke-linecap="round" transform="translate(470 90) rotate(0 44 41)"><path d="M8.2 0 L79.8 0 L83.39 0.51 L85.95 2.05 L87.49 4.61 L88 8.2 L88 73.8 L87.49 77.39 L85.95 79.95 L83.39 81.49 L79.8 82 L8.2 82 L4.61 81.49 L2.05 79.95 L0.51 77.39 L0 73.8 L0 8.2 L0.51 4.61 L2.05 2.05 L4.61 0.51 L8.2 0" stroke="none" stroke-width="0" fill="#FFF"></path><path d="M8.2 0 M8.2 0 C26.34 0, 44.48 0, 79.8 0 M8.2 0 C35.87 0, 63.53 0, 79.8 0 M79.8 0 C85.27 0, 88 2.73, 88 8.2 M79.8 0 C85.27 0, 88 2.73, 88 8.2 M88 8.2 C88 25.02, 88 41.85, 88 73.8 M88 8.2 C88 22.85, 88 37.51, 88 73.8 M88 73.8 C88 79.27, 85.27 82, 79.8 82 M88 73.8 C88 79.27, 85.27 82, 79.8 82 M79.8 82 C59.01 82, 38.22 82, 8.2 82 M79.8 82 C59.33 82, 38.86 82, 8.2 82 M8.2 82 C2.73 82, 0 79.27, 0 73.8 M8.2 82 C2.73 82, 0 79.27, 0 73.8 M0 73.8 C0 56.37, 0 38.94, 0 8.2 M0 73.8 C0 50.01, 0 26.22, 0 8.2 M0 8.2 C0 2.73, 2.73 0, 8.2 0 M0 8.2 C0 2.73, 2.73 0, 8.2 0" stroke="#202124" stroke-width="1" fill="none"></path></g><g transform="translate(486 138) rotate(0 28 9)"><text x="28" y="16" font-family="Helvetica, Segoe UI Emoji" font-size="16px" fill="#202124" text-anchor="middle" style="white-space: pre;" direction="ltr">Computer</text></g><g stroke-linecap="round"><g transform="translate(502 106) rotate(0 12 12)" fill-rule="evenodd"><path d="M0 0 L24 0 L24 24 L0 24 L0 0" stroke="none" stroke-width="0" fill="#00000000" fill-rule="evenodd"></path><path d="M0 0 C7.26 0, 14.52 0, 24 0 M0 0 C8.45 0, 16.9 0, 24 0 M24 0 C24 6.4, 24 12.79, 24 24 M24 0 C24 8.61, 24 17.23, 24 24 M24 24 C15.6 24, 7.19 24, 0 24 M24 24 C15.07 24, 6.14 24, 0 24 M0 24 C0 15.44, 0 6.87, 0 0 M0 24 C0 17.27, 0 10.54, 0 0 M0 0 C0 0, 0 0, 0 0 M0 0 C0 0, 0 0, 0 0" stroke="#00000000" stroke-width="1" fill="none"></path></g></g><g stroke-linecap="round"><g transform="translate(522 124) rotate(0 -8 -6)" fill-rule="evenodd"><path d="M0 0 L0 0 L0.77 -0.16 L1.41 -0.59 L1.83 -1.22 L1.99 -2 L2 -12 L2 -12 L1.84 -12.78 L1.41 -13.41 L0.78 -13.84 L0 -14 L-16 -14 L-16 -14 L-16.78 -13.84 L-17.41 -13.41 L-17.84 -12.78 L-18 -12 L-18 -2 L-18 -2 L-17.84 -1.22 L-17.41 -0.59 L-16.78 -0.16 L-16 0 L-20 0 L-20 2 L4 2 L4 0 L0 0 L0 0" stroke="none" stroke-width="0" fill="#000" fill-rule="evenodd"></path><path d="M0 0 C0 0, 0 0, 0 0 M0 0 C0 0, 0 0, 0 0 M0 0 C0.16 -0.03, 0.32 -0.07, 0.77 -0.16 M0 0 C0.25 -0.05, 0.51 -0.1, 0.77 -0.16 M0.77 -0.16 C0.94 -0.27, 1.1 -0.38, 1.41 -0.59 M0.77 -0.16 C0.93 -0.26, 1.08 -0.36, 1.41 -0.59 M1.41 -0.59 C1.57 -0.83, 1.73 -1.06, 1.83 -1.22 M1.41 -0.59 C1.56 -0.81, 1.71 -1.04, 1.83 -1.22 M1.83 -1.22 C1.88 -1.46, 1.93 -1.69, 1.99 -2 M1.83 -1.22 C1.88 -1.48, 1.94 -1.73, 1.99 -2 M1.99 -2 C1.99 -5.53, 2 -9.06, 2 -12 M1.99 -2 C1.99 -4.53, 2 -7.07, 2 -12 M2 -12 C2 -12, 2 -12, 2 -12 M2 -12 C2 -12, 2 -12, 2 -12 M2 -12 C1.94 -12.28, 1.89 -12.55, 1.84 -12.78 M2 -12 C1.96 -12.21, 1.91 -12.43, 1.84 -12.78 M1.84 -12.78 C1.69 -13.01, 1.53 -13.24, 1.41 -13.41 M1.84 -12.78 C1.75 -12.91, 1.66 -13.05, 1.41 -13.41 M1.41 -13.41 C1.22 -13.54, 1.03 -13.67, 0.78 -13.84 M1.41 -13.41 C1.16 -13.58, 0.91 -13.75, 0.78 -13.84 M0.78 -13.84 C0.48 -13.9, 0.17 -13.96, 0 -14 M0.78 -13.84 C0.48 -13.9, 0.18 -13.96, 0 -14 M0 -14 C-4.9 -14, -9.81 -14, -16 -14 M0 -14 C-3.31 -14, -6.63 -14, -16 -14 M-16 -14 C-16 -14, -16 -14, -16 -14 M-16 -14 C-16 -14, -16 -14, -16 -14 M-16 -14 C-16.31 -13.94, -16.62 -13.87, -16.78 -13.84 M-16 -14 C-16.17 -13.96, -16.35 -13.93, -16.78 -13.84 M-16.78 -13.84 C-17 -13.69, -17.23 -13.54, -17.41 -13.41 M-16.78 -13.84 C-16.91 -13.76, -17.03 -13.67, -17.41 -13.41 M-17.41 -13.41 C-17.5 -13.28, -17.59 -13.15, -17.84 -12.78 M-17.41 -13.41 C-17.58 -13.17, -17.74 -12.93, -17.84 -12.78 M-17.84 -12.78 C-17.89 -12.52, -17.95 -12.26, -18 -12 M-17.84 -12.78 C-17.9 -12.51, -17.95 -12.25, -18 -12 M-18 -12 C-18 -9.35, -18 -6.7, -18 -2 M-18 -12 C-18 -8.64, -18 -5.29, -18 -2 M-18 -2 C-18 -2, -18 -2, -18 -2 M-18 -2 C-18 -2, -18 -2, -18 -2 M-18 -2 C-17.95 -1.76, -17.9 -1.51, -17.84 -1.22 M-18 -2 C-17.94 -1.72, -17.89 -1.44, -17.84 -1.22 M-17.84 -1.22 C-17.71 -1.02, -17.57 -0.82, -17.41 -0.59 M-17.84 -1.22 C-17.7 -1.01, -17.55 -0.8, -17.41 -0.59 M-17.41 -0.59 C-17.16 -0.42, -16.91 -0.25, -16.78 -0.16 M-17.41 -0.59 C-17.25 -0.48, -17.1 -0.37, -16.78 -0.16 M-16.78 -0.16 C-16.47 -0.1, -16.17 -0.04, -16 0 M-16.78 -0.16 C-16.61 -0.12, -16.45 -0.09, -16 0 M-16 0 C-17.45 0, -18.89 0, -20 0 M-16 0 C-16.89 0, -17.77 0, -20 0 M-20 0 C-20 0.42, -20 0.85, -20 2 M-20 0 C-20 0.52, -20 1.04, -20 2 M-20 2 C-11.3 2, -2.61 2, 4 2 M-20 2 C-14.93 2, -9.86 2, 4 2 M4 2 C4 1.29, 4 0.57, 4 0 M4 2 C4 1.35, 4 0.7, 4 0 M4 0 C2.57 0, 1.14 0, 0 0 M4 0 C2.5 0, 0.99 0, 0 0 M0 0 C0 0, 0 0, 0 0 M0 0 C0 0, 0 0, 0 0 M0 0 C0 0, 0 0, 0 0 M0 0 C0 0, 0 0, 0 0" stroke="#00000000" stroke-width="1" fill="none"></path></g></g><g stroke-linecap="round"><g transform="translate(506 112) rotate(0 8 5)" fill-rule="evenodd"><path d="M0 0 L16 0 L16 10 L0 10 L0 0" stroke="none" stroke-width="0" fill="#DEDEDE" fill-rule="evenodd"></path><path d="M0 0 C5.58 0, 11.17 0, 16 0 M0 0 C6.31 0, 12.62 0, 16 0 M16 0 C16 2, 16 4, 16 10 M16 0 C16 2.32, 16 4.65, 16 10 M16 10 C10.03 10, 4.07 10, 0 10 M16 10 C11.89 10, 7.78 10, 0 10 M0 10 C0 7.17, 0 4.33, 0 0 M0 10 C0 6.99, 0 3.97, 0 0 M0 0 C0 0, 0 0, 0 0 M0 0 C0 0, 0 0, 0 0" stroke="#00000000" stroke-width="1" fill="none"></path></g></g><g stroke-linecap="round" transform="translate(610 670) rotate(0 100 33.333333333333314)"><path d="M6.67 0 L196.25 0.42 L198.33 1.67 L199.58 3.75 L200 6.67 L199.58 62.92 L198.33 65 L196.25 66.25 L193.33 66.67 L3.75 66.25 L1.67 65 L0.42 62.92 L0 60 L0 6.67 L0.42 3.75 L1.67 1.67 L3.75 0.42 L6.67 0" stroke="none" stroke-width="0" fill="#FFF"></path><path d="M6.67 0 M6.67 0 C52.55 0, 98.43 0, 193.33 0 M6.67 0 C51.08 0, 95.49 0, 193.33 0 M193.33 0 C197.78 0, 200 2.22, 200 6.67 M193.33 0 C197.78 0, 200 2.22, 200 6.67 M200 6.67 C200 18.43, 200 30.2, 200 60 M200 6.67 C200 20.16, 200 33.64, 200 60 M200 60 C200 64.44, 197.78 66.67, 193.33 66.67 M200 60 C200 64.44, 197.78 66.67, 193.33 66.67 M193.33 66.67 C142.92 66.67, 92.51 66.67, 6.67 66.67 M193.33 66.67 C122 66.67, 50.67 66.67, 6.67 66.67 M6.67 66.67 C2.22 66.67, 0 64.44, 0 60 M6.67 66.67 C2.22 66.67, 0 64.44, 0 60 M0 60 C0 45.14, 0 30.28, 0 6.67 M0 60 C0 40.84, 0 21.67, 0 6.67 M0 6.67 C0 2.22, 2.22 0, 6.67 0 M0 6.67 C0 2.22, 2.22 0, 6.67 0" stroke="#202124" stroke-width="1" fill="none"></path></g><g transform="translate(623.3333333333334 683.3333333333333) rotate(0 32.916666666666686 7.916666666666686)"><text x="0" y="12.833333333333334" font-family="Helvetica, Segoe UI Emoji" font-size="13.333333333333336px" fill="#1A73E8" text-anchor="start" style="white-space: pre;" direction="ltr">Cloud SQL</text></g><g transform="translate(626.6666666666666 703.3333333333333) rotate(0 22.5 7.5)"><text x="0" y="12" font-family="Helvetica, Segoe UI Emoji" font-size="13.333333333333334px" fill="#202124" text-anchor="start" style="white-space: pre;" direction="ltr">MySQL</text></g><g stroke-linecap="round"><g transform="translate(780.5583333969116 692.0333329836528) rotate(0 3.054166634877504 2.8791670004526964)" fill-rule="evenodd"><path d="M0 0 L0 2.51 L6.11 5.76 L6.11 3.25 L0 0 L0 0" stroke="none" stroke-width="0" fill="#aecbfa" fill-rule="evenodd"></path><path d="M0 0 C0 0.6, 0 1.2, 0 2.51 M0 0 C0 0.8, 0 1.59, 0 2.51 M0 2.51 C1.87 3.51, 3.75 4.5, 6.11 5.76 M0 2.51 C2.13 3.64, 4.26 4.78, 6.11 5.76 M6.11 5.76 C6.11 5.11, 6.11 4.46, 6.11 3.25 M6.11 5.76 C6.11 4.88, 6.11 4, 6.11 3.25 M6.11 3.25 C3.85 2.05, 1.59 0.85, 0 0 M6.11 3.25 C4.44 2.36, 2.78 1.48, 0 0 M0 0 C0 0, 0 0, 0 0 M0 0 C0 0, 0 0, 0 0 M0 0 C0 0, 0 0, 0 0 M0 0 C0 0, 0 0, 0 0" stroke="#00000000" stroke-width="1" fill="none"></path></g></g><g stroke-linecap="round"><g transform="translate(780.5583333969116 695.90833346049) rotate(0 3.054166634877504 2.879166603088379)" fill-rule="evenodd"><path d="M0 0 L0 2.51 L6.11 5.76 L6.11 3.25 L0 0 L0 0" stroke="none" stroke-width="0" fill="#aecbfa" fill-rule="evenodd"></path><path d="M0 0 C0 1, 0 2, 0 2.51 M0 0 C0 0.85, 0 1.71, 0 2.51 M0 2.51 C1.56 3.34, 3.12 4.17, 6.11 5.76 M0 2.51 C1.47 3.29, 2.94 4.07, 6.11 5.76 M6.11 5.76 C6.11 4.81, 6.11 3.87, 6.11 3.25 M6.11 5.76 C6.11 4.83, 6.11 3.9, 6.11 3.25 M6.11 3.25 C4.75 2.53, 3.38 1.8, 0 0 M6.11 3.25 C4.34 2.31, 2.58 1.37, 0 0 M0 0 C0 0, 0 0, 0 0 M0 0 C0 0, 0 0, 0 0 M0 0 C0 0, 0 0, 0 0 M0 0 C0 0, 0 0, 0 0" stroke="#00000000" stroke-width="1" fill="none"></path></g></g><g stroke-linecap="round"><g transform="translate(786.6666666666667 697.7916669845581) rotate(0 3.054166634877504 -2.8791670004526964)" fill-rule="evenodd"><path d="M0 0 L6.11 -3.25 L6.11 -5.76 L0 -2.51 L0 0 L0 0" stroke="none" stroke-width="0" fill="#669df6" fill-rule="evenodd"></path><path d="M0 0 C2.06 -1.1, 4.12 -2.19, 6.11 -3.25 M0 0 C1.43 -0.76, 2.85 -1.52, 6.11 -3.25 M6.11 -3.25 C6.11 -4.06, 6.11 -4.87, 6.11 -5.76 M6.11 -3.25 C6.11 -3.85, 6.11 -4.44, 6.11 -5.76 M6.11 -5.76 C4.63 -4.97, 3.16 -4.19, 0 -2.51 M6.11 -5.76 C4.71 -5.02, 3.32 -4.28, 0 -2.51 M0 -2.51 C0 -1.51, 0 -0.5, 0 0 M0 -2.51 C0 -1.79, 0 -1.07, 0 0 M0 0 C0 0, 0 0, 0 0 M0 0 C0 0, 0 0, 0 0 M0 0 C0 0, 0 0, 0 0 M0 0 C0 0, 0 0, 0 0" stroke="#00000000" stroke-width="1" fill="none"></path></g></g><g stroke-linecap="round"><g transform="translate(786.6666666666667 701.6666666666667) rotate(0 3.054166634877504 -2.879166603088379)" fill-rule="evenodd"><path d="M0 0 L6.11 -3.25 L6.11 -5.76 L0 -2.51 L0 0 L0 0" stroke="none" stroke-width="0" fill="#669df6" fill-rule="evenodd"></path><path d="M0 0 C1.34 -0.71, 2.67 -1.42, 6.11 -3.25 M0 0 C2.17 -1.16, 4.34 -2.31, 6.11 -3.25 M6.11 -3.25 C6.11 -4.23, 6.11 -5.21, 6.11 -5.76 M6.11 -3.25 C6.11 -4.19, 6.11 -5.14, 6.11 -5.76 M6.11 -5.76 C4.49 -4.9, 2.88 -4.04, 0 -2.51 M6.11 -5.76 C3.88 -4.57, 1.64 -3.38, 0 -2.51 M0 -2.51 C0 -1.89, 0 -1.27, 0 0 M0 -2.51 C0 -1.87, 0 -1.24, 0 0 M0 0 C0 0, 0 0, 0 0 M0 0 C0 0, 0 0, 0 0 M0 0 C0 0, 0 0, 0 0 M0 0 C0 0, 0 0, 0 0" stroke="#00000000" stroke-width="1" fill="none"></path></g></g><g stroke-linecap="round"><g transform="translate(792.7749999364218 690.7583332061768) rotate(0 -3.054166634877504 -2.879166603088379)" fill-rule="evenodd"><path d="M0 0 L0 -2.51 L-6.11 -5.76 L-6.11 -3.25 L0 0 L0 0" stroke="none" stroke-width="0" fill="#4285f4" fill-rule="evenodd"></path><path d="M0 0 C0 -0.53, 0 -1.07, 0 -2.51 M0 0 C0 -0.62, 0 -1.25, 0 -2.51 M0 -2.51 C-1.77 -3.45, -3.54 -4.39, -6.11 -5.76 M0 -2.51 C-1.36 -3.23, -2.73 -3.96, -6.11 -5.76 M-6.11 -5.76 C-6.11 -4.79, -6.11 -3.81, -6.11 -3.25 M-6.11 -5.76 C-6.11 -5.11, -6.11 -4.47, -6.11 -3.25 M-6.11 -3.25 C-4.13 -2.2, -2.16 -1.15, 0 0 M-6.11 -3.25 C-4.01 -2.13, -1.91 -1.02, 0 0 M0 0 C0 0, 0 0, 0 0 M0 0 C0 0, 0 0, 0 0 M0 0 C0 0, 0 0, 0 0 M0 0 C0 0, 0 0, 0 0" stroke="#00000000" stroke-width="1" fill="none"></path></g></g><g stroke-linecap="round"><g transform="translate(786.6666666666667 685) rotate(0 -3.054166634877504 2.879166603088379)" fill-rule="evenodd"><path d="M0 0 L-6.11 3.25 L-6.11 5.76 L0 2.51 L0 0 L0 0" stroke="none" stroke-width="0" fill="#669df6" fill-rule="evenodd"></path><path d="M0 0 C-2.4 1.28, -4.81 2.56, -6.11 3.25 M0 0 C-2.26 1.2, -4.51 2.4, -6.11 3.25 M-6.11 3.25 C-6.11 3.78, -6.11 4.31, -6.11 5.76 M-6.11 3.25 C-6.11 3.85, -6.11 4.44, -6.11 5.76 M-6.11 5.76 C-4.53 4.92, -2.95 4.08, 0 2.51 M-6.11 5.76 C-4.56 4.94, -3.02 4.11, 0 2.51 M0 2.51 C0 1.61, 0 0.71, 0 0 M0 2.51 C0 1.55, 0 0.59, 0 0 M0 0 C0 0, 0 0, 0 0 M0 0 C0 0, 0 0, 0 0 M0 0 C0 0, 0 0, 0 0 M0 0 C0 0, 0 0, 0 0" stroke="#00000000" stroke-width="1" fill="none"></path></g></g><g stroke-linecap="round"><g transform="translate(780.5583333969116 688.2249999046326) rotate(0 3.054166634877504 2.883333365122496)" fill-rule="evenodd"><path d="M0 0 L0 2.52 L6.11 5.77 L6.11 3.25 L0 0 L0 0" stroke="none" stroke-width="0" fill="#aecbfa" fill-rule="evenodd"></path><path d="M0 0 C0 0.81, 0 1.63, 0 2.52 M0 0 C0 0.9, 0 1.79, 0 2.52 M0 2.52 C1.24 3.18, 2.48 3.84, 6.11 5.77 M0 2.52 C1.59 3.36, 3.18 4.21, 6.11 5.77 M6.11 5.77 C6.11 5.13, 6.11 4.49, 6.11 3.25 M6.11 5.77 C6.11 5.04, 6.11 4.3, 6.11 3.25 M6.11 3.25 C3.84 2.04, 1.57 0.83, 0 0 M6.11 3.25 C4.72 2.51, 3.33 1.77, 0 0 M0 0 C0 0, 0 0, 0 0 M0 0 C0 0, 0 0, 0 0 M0 0 C0 0, 0 0, 0 0 M0 0 C0 0, 0 0, 0 0" stroke="#00000000" stroke-width="1" fill="none"></path></g></g><g stroke-linecap="round"><g transform="translate(786.6666666666667 693.9916666348774) rotate(0 3.054166634877504 -2.883333365122496)" fill-rule="evenodd"><path d="M0 0 L6.11 -3.25 L6.11 -5.77 L0 -2.52 L0 0 L0 0" stroke="none" stroke-width="0" fill="#669df6" fill-rule="evenodd"></path><path d="M0 0 C1.88 -1, 3.77 -2, 6.11 -3.25 M0 0 C2.04 -1.08, 4.08 -2.17, 6.11 -3.25 M6.11 -3.25 C6.11 -4.13, 6.11 -5.01, 6.11 -5.77 M6.11 -3.25 C6.11 -4.01, 6.11 -4.77, 6.11 -5.77 M6.11 -5.77 C4.46 -4.89, 2.81 -4.01, 0 -2.52 M6.11 -5.77 C4.6 -4.96, 3.08 -4.16, 0 -2.52 M0 -2.52 C0 -1.8, 0 -1.08, 0 0 M0 -2.52 C0 -1.64, 0 -0.77, 0 0 M0 0 C0 0, 0 0, 0 0 M0 0 C0 0, 0 0, 0 0 M0 0 C0 0, 0 0, 0 0 M0 0 C0 0, 0 0, 0 0" stroke="#00000000" stroke-width="1" fill="none"></path></g></g><g stroke-linecap="round" transform="translate(610 590) rotate(0 100 33.33333333333334)"><path d="M6.67 0 L196.25 0.42 L198.33 1.67 L199.58 3.75 L200 6.67 L199.58 62.92 L198.33 65 L196.25 66.25 L193.33 66.67 L3.75 66.25 L1.67 65 L0.42 62.92 L0 60 L0 6.67 L0.42 3.75 L1.67 1.67 L3.75 0.42 L6.67 0" stroke="none" stroke-width="0" fill="#FFF"></path><path d="M6.67 0 M6.67 0 C71.81 0, 136.96 0, 193.33 0 M6.67 0 C73.92 0, 141.16 0, 193.33 0 M193.33 0 C197.78 0, 200 2.22, 200 6.67 M193.33 0 C197.78 0, 200 2.22, 200 6.67 M200 6.67 C200 25.14, 200 43.61, 200 60 M200 6.67 C200 26.83, 200 47, 200 60 M200 60 C200 64.44, 197.78 66.67, 193.33 66.67 M200 60 C200 64.44, 197.78 66.67, 193.33 66.67 M193.33 66.67 C134.23 66.67, 75.12 66.67, 6.67 66.67 M193.33 66.67 C129.49 66.67, 65.65 66.67, 6.67 66.67 M6.67 66.67 C2.22 66.67, 0 64.44, 0 60 M6.67 66.67 C2.22 66.67, 0 64.44, 0 60 M0 60 C0 48.36, 0 36.73, 0 6.67 M0 60 C0 40.95, 0 21.9, 0 6.67 M0 6.67 C0 2.22, 2.22 0, 6.67 0 M0 6.67 C0 2.22, 2.22 0, 6.67 0" stroke="#202124" stroke-width="1" fill="none"></path></g><g transform="translate(623.3333333333333 603.3333333333333) rotate(0 42.916666666666686 7.916666666666657)"><text x="0" y="12.833333333333334" font-family="Helvetica, Segoe UI Emoji" font-size="13.333333333333334px" fill="#1A73E8" text-anchor="start" style="white-space: pre;" direction="ltr">Cloud Storage</text></g><g transform="translate(623.3333333333333 621.6666666666667) rotate(0 40.833333333333314 7.916666666666657)"><text x="0" y="12.833333333333334" font-family="Helvetica, Segoe UI Emoji" font-size="13.333333333333334px" fill="#202124" text-anchor="start" style="white-space: pre;" direction="ltr">Static content</text></g><g stroke-linecap="round" transform="translate(778.3333333333334 606.6666666666667) rotate(0 8.333333333333314 2.916666666666657)"><path d="M0 0 L16.67 0 L16.67 5.83 L0 5.83" stroke="none" stroke-width="0" fill="#aecbfa"></path><path d="M0 0 C5.84 0, 11.69 0, 16.67 0 M0 0 C5.03 0, 10.06 0, 16.67 0 M16.67 0 C16.67 1.8, 16.67 3.61, 16.67 5.83 M16.67 0 C16.67 1.35, 16.67 2.71, 16.67 5.83 M16.67 5.83 C11.91 5.83, 7.16 5.83, 0 5.83 M16.67 5.83 C10.05 5.83, 3.43 5.83, 0 5.83 M0 5.83 C0 4.4, 0 2.97, 0 0 M0 5.83 C0 4, 0 2.17, 0 0" stroke="transparent" stroke-width="1" fill="none"></path></g><g stroke-linecap="round" transform="translate(793.3333333333334 606.6666666666667) rotate(0 0.8333333333333144 2.916666666666657)"><path d="M0 0 L1.67 0 L1.67 5.83 L0 5.83" stroke="none" stroke-width="0" fill="#669df6"></path><path d="M0 0 C0.65 0, 1.3 0, 1.67 0 M0 0 C0.62 0, 1.24 0, 1.67 0 M1.67 0 C1.67 2.11, 1.67 4.21, 1.67 5.83 M1.67 0 C1.67 1.44, 1.67 2.88, 1.67 5.83 M1.67 5.83 C1.14 5.83, 0.62 5.83, 0 5.83 M1.67 5.83 C1.15 5.83, 0.63 5.83, 0 5.83 M0 5.83 C0 3.64, 0 1.45, 0 0 M0 5.83 C0 3.62, 0 1.41, 0 0" stroke="transparent" stroke-width="1" fill="none"></path></g><g stroke-linecap="round"><g transform="translate(795 606.6666666666667) rotate(0 -0.8333333333333144 2.916666666666657)" fill-rule="evenodd"><path d="M0 0 L-1.67 0 L-1.67 5.83 L0 0 L0 0" stroke="none" stroke-width="0" fill="#4285f4" fill-rule="evenodd"></path><path d="M0 0 C-0.56 0, -1.12 0, -1.67 0 M0 0 C-0.4 0, -0.81 0, -1.67 0 M-1.67 0 C-1.67 2.03, -1.67 4.05, -1.67 5.83 M-1.67 0 C-1.67 1.22, -1.67 2.45, -1.67 5.83 M-1.67 5.83 C-1.02 3.55, -0.36 1.27, 0 0 M-1.67 5.83 C-1.26 4.42, -0.86 3, 0 0 M0 0 C0 0, 0 0, 0 0 M0 0 C0 0, 0 0, 0 0 M0 0 C0 0, 0 0, 0 0 M0 0 C0 0, 0 0, 0 0" stroke="#00000000" stroke-width="1" fill="none"></path></g></g><g stroke-linecap="round" transform="translate(778.3333333333334 606.6666666666667) rotate(0 0.8333333333333144 2.916666666666657)"><path d="M0 0 L1.67 0 L1.67 5.83 L0 5.83" stroke="none" stroke-width="0" fill="#669df6"></path><path d="M0 0 C0.43 0, 0.86 0, 1.67 0 M0 0 C0.46 0, 0.92 0, 1.67 0 M1.67 0 C1.67 1.64, 1.67 3.29, 1.67 5.83 M1.67 0 C1.67 1.57, 1.67 3.13, 1.67 5.83 M1.67 5.83 C1.28 5.83, 0.89 5.83, 0 5.83 M1.67 5.83 C1.29 5.83, 0.91 5.83, 0 5.83 M0 5.83 C0 3.98, 0 2.13, 0 0 M0 5.83 C0 3.84, 0 1.85, 0 0" stroke="transparent" stroke-width="1" fill="none"></path></g><g stroke-linecap="round" transform="translate(781.6666666666667 609.1666666666667) rotate(0 2.5 0.4166666666666572)"><path d="M0 0 L5 0 L5 0.83 L0 0.83" stroke="none" stroke-width="0" fill="#fff"></path><path d="M0 0 C1.79 0, 3.58 0, 5 0 M0 0 C1.19 0, 2.38 0, 5 0 M5 0 C5 0.3, 5 0.6, 5 0.83 M5 0 C5 0.18, 5 0.37, 5 0.83 M5 0.83 C3.6 0.83, 2.21 0.83, 0 0.83 M5 0.83 C3.59 0.83, 2.17 0.83, 0 0.83 M0 0.83 C0 0.54, 0 0.26, 0 0 M0 0.83 C0 0.53, 0 0.23, 0 0" stroke="transparent" stroke-width="1" fill="none"></path></g><g stroke-linecap="round" transform="translate(789.1666666666667 608.3333333333333) rotate(0 1.25 1.25)"><path d="M0.25 0 L2.5 0.25 L2.25 2.5 L0 2.25 L0.25 0" stroke="none" stroke-width="0" fill="#fff"></path><path d="M0.25 0 M0.25 0 C0.73 0, 1.2 0, 2.25 0 M0.25 0 C0.87 0, 1.49 0, 2.25 0 M2.25 0 C2.42 0, 2.5 0.08, 2.5 0.25 M2.25 0 C2.42 0, 2.5 0.08, 2.5 0.25 M2.5 0.25 C2.5 0.69, 2.5 1.14, 2.5 2.25 M2.5 0.25 C2.5 0.82, 2.5 1.39, 2.5 2.25 M2.5 2.25 C2.5 2.42, 2.42 2.5, 2.25 2.5 M2.5 2.25 C2.5 2.42, 2.42 2.5, 2.25 2.5 M2.25 2.5 C1.68 2.5, 1.12 2.5, 0.25 2.5 M2.25 2.5 C1.76 2.5, 1.27 2.5, 0.25 2.5 M0.25 2.5 C0.08 2.5, 0 2.42, 0 2.25 M0.25 2.5 C0.08 2.5, 0 2.42, 0 2.25 M0 2.25 C0 1.53, 0 0.81, 0 0.25 M0 2.25 C0 1.85, 0 1.44, 0 0.25 M0 0.25 C0 0.08, 0.08 0, 0.25 0 M0 0.25 C0 0.08, 0.08 0, 0.25 0" stroke="transparent" stroke-width="1" fill="none"></path></g><g stroke-linecap="round" transform="translate(778.3333333333334 614.1666666666667) rotate(0 8.333333333333314 2.916666666666657)"><path d="M0 0 L16.67 0 L16.67 5.83 L0 5.83" stroke="none" stroke-width="0" fill="#aecbfa"></path><path d="M0 0 C5.98 0, 11.95 0, 16.67 0 M0 0 C4 0, 7.99 0, 16.67 0 M16.67 0 C16.67 1.84, 16.67 3.67, 16.67 5.83 M16.67 0 C16.67 2.03, 16.67 4.06, 16.67 5.83 M16.67 5.83 C12.29 5.83, 7.92 5.83, 0 5.83 M16.67 5.83 C10.69 5.83, 4.71 5.83, 0 5.83 M0 5.83 C0 3.98, 0 2.12, 0 0 M0 5.83 C0 4.44, 0 3.04, 0 0" stroke="transparent" stroke-width="1" fill="none"></path></g><g stroke-linecap="round" transform="translate(793.3333333333334 614.1666666666667) rotate(0 0.8333333333333144 2.916666666666657)"><path d="M0 0 L1.67 0 L1.67 5.83 L0 5.83" stroke="none" stroke-width="0" fill="#669df6"></path><path d="M0 0 C0.59 0, 1.19 0, 1.67 0 M0 0 C0.42 0, 0.84 0, 1.67 0 M1.67 0 C1.67 2.06, 1.67 4.11, 1.67 5.83 M1.67 0 C1.67 2.25, 1.67 4.51, 1.67 5.83 M1.67 5.83 C1.29 5.83, 0.91 5.83, 0 5.83 M1.67 5.83 C1.08 5.83, 0.49 5.83, 0 5.83 M0 5.83 C0 3.6, 0 1.36, 0 0 M0 5.83 C0 4.03, 0 2.23, 0 0" stroke="transparent" stroke-width="1" fill="none"></path></g><g stroke-linecap="round"><g transform="translate(795 614.1666666666667) rotate(0 -0.8333333333333144 2.916666666666657)" fill-rule="evenodd"><path d="M0 0 L-1.67 0 L-1.67 5.83 L0 0 L0 0" stroke="none" stroke-width="0" fill="#4285f4" fill-rule="evenodd"></path><path d="M0 0 C-0.66 0, -1.33 0, -1.67 0 M0 0 C-0.58 0, -1.16 0, -1.67 0 M-1.67 0 C-1.67 1.44, -1.67 2.89, -1.67 5.83 M-1.67 0 C-1.67 1.86, -1.67 3.72, -1.67 5.83 M-1.67 5.83 C-1.06 3.71, -0.45 1.59, 0 0 M-1.67 5.83 C-1.06 3.7, -0.45 1.56, 0 0 M0 0 C0 0, 0 0, 0 0 M0 0 C0 0, 0 0, 0 0 M0 0 C0 0, 0 0, 0 0 M0 0 C0 0, 0 0, 0 0" stroke="#00000000" stroke-width="1" fill="none"></path></g></g><g stroke-linecap="round" transform="translate(778.3333333333334 614.1666666666667) rotate(0 0.8333333333333144 2.916666666666657)"><path d="M0 0 L1.67 0 L1.67 5.83 L0 5.83" stroke="none" stroke-width="0" fill="#669df6"></path><path d="M0 0 C0.34 0, 0.67 0, 1.67 0 M0 0 C0.5 0, 1 0, 1.67 0 M1.67 0 C1.67 2.04, 1.67 4.07, 1.67 5.83 M1.67 0 C1.67 1.29, 1.67 2.58, 1.67 5.83 M1.67 5.83 C1.09 5.83, 0.51 5.83, 0 5.83 M1.67 5.83 C1.01 5.83, 0.35 5.83, 0 5.83 M0 5.83 C0 3.99, 0 2.14, 0 0 M0 5.83 C0 3.67, 0 1.5, 0 0" stroke="transparent" stroke-width="1" fill="none"></path></g><g stroke-linecap="round" transform="translate(781.6666666666667 616.6666666666667) rotate(0 2.5 0.4166666666666572)"><path d="M0 0 L5 0 L5 0.83 L0 0.83" stroke="none" stroke-width="0" fill="#fff"></path><path d="M0 0 C1.49 0, 2.97 0, 5 0 M0 0 C1.57 0, 3.14 0, 5 0 M5 0 C5 0.33, 5 0.66, 5 0.83 M5 0 C5 0.27, 5 0.54, 5 0.83 M5 0.83 C3.21 0.83, 1.43 0.83, 0 0.83 M5 0.83 C3.19 0.83, 1.38 0.83, 0 0.83 M0 0.83 C0 0.59, 0 0.35, 0 0 M0 0.83 C0 0.5, 0 0.17, 0 0" stroke="transparent" stroke-width="1" fill="none"></path></g><g stroke-linecap="round" transform="translate(789.1666666666667 615.8333333333333) rotate(0 1.25 1.25)"><path d="M0.25 0 L2.5 0.25 L2.25 2.5 L0 2.25 L0.25 0" stroke="none" stroke-width="0" fill="#fff"></path><path d="M0.25 0 M0.25 0 C0.88 0, 1.51 0, 2.25 0 M0.25 0 C0.88 0, 1.51 0, 2.25 0 M2.25 0 C2.42 0, 2.5 0.08, 2.5 0.25 M2.25 0 C2.42 0, 2.5 0.08, 2.5 0.25 M2.5 0.25 C2.5 0.89, 2.5 1.54, 2.5 2.25 M2.5 0.25 C2.5 0.78, 2.5 1.3, 2.5 2.25 M2.5 2.25 C2.5 2.42, 2.42 2.5, 2.25 2.5 M2.5 2.25 C2.5 2.42, 2.42 2.5, 2.25 2.5 M2.25 2.5 C1.53 2.5, 0.8 2.5, 0.25 2.5 M2.25 2.5 C1.61 2.5, 0.98 2.5, 0.25 2.5 M0.25 2.5 C0.08 2.5, 0 2.42, 0 2.25 M0.25 2.5 C0.08 2.5, 0 2.42, 0 2.25 M0 2.25 C0 1.46, 0 0.66, 0 0.25 M0 2.25 C0 1.62, 0 0.99, 0 0.25 M0 0.25 C0 0.08, 0.08 0, 0.25 0 M0 0.25 C0 0.08, 0.08 0, 0.25 0" stroke="transparent" stroke-width="1" fill="none"></path></g><g stroke-linecap="round"><g transform="translate(510 190) rotate(0 -170 90)"><path d="M0 0 C0 36.95, 0 73.91, 0 100 M0 0 C0 36.22, 0 72.44, 0 100 M0 100 C-128.09 100, -256.17 100, -340 100 M0 100 C-99.06 100, -198.13 100, -340 100 M-340 100 C-340 116.55, -340 133.1, -340 180 M-340 100 C-340 129.26, -340 158.52, -340 180" stroke="#202124" stroke-width="1" fill="none"></path></g><g transform="translate(510 190) rotate(0 -170 90)"><path d="M-340 180 L-346.34 166.41 L-333.66 166.41 L-340 180" stroke="none" stroke-width="0" fill="#202124" fill-rule="evenodd"></path><path d="M-340 180 C-342.34 174.98, -344.69 169.95, -346.34 166.41 M-340 180 C-342.3 175.08, -344.59 170.15, -346.34 166.41 M-346.34 166.41 C-341.56 166.41, -336.79 166.41, -333.66 166.41 M-346.34 166.41 C-342.65 166.41, -338.95 166.41, -333.66 166.41 M-333.66 166.41 C-334.97 169.22, -336.28 172.03, -340 180 M-333.66 166.41 C-335.98 171.38, -338.3 176.35, -340 180 M-340 180 C-340 180, -340 180, -340 180 M-340 180 C-340 180, -340 180, -340 180" stroke="#202124" stroke-width="1" fill="none"></path></g></g><g stroke-linecap="round" transform="translate(70 370) rotate(0 80 40.33333333333334)"><path d="M8.07 0 L155.46 0.5 L157.98 2.02 L159.5 4.54 L160 8.07 L159.5 76.13 L157.98 78.65 L155.46 80.16 L151.93 80.67 L4.54 80.16 L2.02 78.65 L0.5 76.13 L0 72.6 L0 8.07 L0.5 4.54 L2.02 2.02 L4.54 0.5 L8.07 0" stroke="none" stroke-width="0" fill="#FFF"></path><path d="M8.07 0 M8.07 0 C37.12 0, 66.17 0, 151.93 0 M8.07 0 C61.96 0, 115.85 0, 151.93 0 M151.93 0 C157.31 0, 160 2.69, 160 8.07 M151.93 0 C157.31 0, 160 2.69, 160 8.07 M160 8.07 C160 21.12, 160 34.17, 160 72.6 M160 8.07 C160 33.1, 160 58.14, 160 72.6 M160 72.6 C160 77.98, 157.31 80.67, 151.93 80.67 M160 72.6 C160 77.98, 157.31 80.67, 151.93 80.67 M151.93 80.67 C103.46 80.67, 54.98 80.67, 8.07 80.67 M151.93 80.67 C121.75 80.67, 91.57 80.67, 8.07 80.67 M8.07 80.67 C2.69 80.67, 0 77.98, 0 72.6 M8.07 80.67 C2.69 80.67, 0 77.98, 0 72.6 M0 72.6 C0 56.22, 0 39.85, 0 8.07 M0 72.6 C0 47.36, 0 22.12, 0 8.07 M0 8.07 C0 2.69, 2.69 0, 8.07 0 M0 8.07 C0 2.69, 2.69 0, 8.07 0" stroke="#202124" stroke-width="1" fill="none"></path></g><g transform="translate(80.66666666666669 380.66666666666663) rotate(0 62.51666666666668 8.066666666666663)"><text x="0" y="12.133333333333336" font-family="GoogleSans_Medium, Segoe UI Emoji" font-size="12.704303749100953px" fill="#1A73E8" text-anchor="start" style="white-space: pre;" direction="ltr">Cloud Load Balancer </text></g><g stroke-linecap="round"><g transform="translate(211.92000007629372 387.88606007893816) rotate(0 -0.6836366653442383 -1.3672725359598843)" fill-rule="evenodd"><path d="M0 0 L-1.37 0 L-1.37 -2.73 L0 -2.73 L0 0" stroke="none" stroke-width="0" fill="#4285f4" fill-rule="evenodd"></path><path d="M0 0 C-0.41 0, -0.81 0, -1.37 0 M0 0 C-0.33 0, -0.65 0, -1.37 0 M-1.37 0 C-1.37 -0.77, -1.37 -1.53, -1.37 -2.73 M-1.37 0 C-1.37 -0.99, -1.37 -1.98, -1.37 -2.73 M-1.37 -2.73 C-0.99 -2.73, -0.62 -2.73, 0 -2.73 M-1.37 -2.73 C-0.93 -2.73, -0.49 -2.73, 0 -2.73 M0 -2.73 C0 -2.14, 0 -1.54, 0 0 M0 -2.73 C0 -1.92, 0 -1.11, 0 0 M0 0 C0 0, 0 0, 0 0 M0 0 C0 0, 0 0, 0 0" stroke="#00000000" stroke-width="1" fill="none"></path></g></g><g stroke-linecap="round"><g transform="translate(205.76727263132716 387.88606007893816) rotate(0 5.469090302785247 1.7090908686320034)" fill-rule="evenodd"><path d="M0 0 L0 3.42 L1.37 3.42 L1.37 1.37 L4.79 1.37 L4.79 3.42 L6.15 3.42 L6.15 1.37 L9.57 1.37 L9.57 3.42 L10.94 3.42 L10.94 0 L0 0" stroke="none" stroke-width="0" fill="#669df6" fill-rule="evenodd"></path><path d="M0 0 C0 1.08, 0 2.17, 0 3.42 M0 0 C0 1.18, 0 2.35, 0 3.42 M0 3.42 C0.39 3.42, 0.78 3.42, 1.37 3.42 M0 3.42 C0.4 3.42, 0.81 3.42, 1.37 3.42 M1.37 3.42 C1.37 2.88, 1.37 2.35, 1.37 1.37 M1.37 3.42 C1.37 2.89, 1.37 2.36, 1.37 1.37 M1.37 1.37 C2.38 1.37, 3.38 1.37, 4.79 1.37 M1.37 1.37 C2.33 1.37, 3.29 1.37, 4.79 1.37 M4.79 1.37 C4.79 2.18, 4.79 2.99, 4.79 3.42 M4.79 1.37 C4.79 2.02, 4.79 2.67, 4.79 3.42 M4.79 3.42 C5.14 3.42, 5.49 3.42, 6.15 3.42 M4.79 3.42 C5.32 3.42, 5.85 3.42, 6.15 3.42 M6.15 3.42 C6.15 2.61, 6.15 1.8, 6.15 1.37 M6.15 3.42 C6.15 2.67, 6.15 1.93, 6.15 1.37 M6.15 1.37 C7.09 1.37, 8.03 1.37, 9.57 1.37 M6.15 1.37 C7.22 1.37, 8.29 1.37, 9.57 1.37 M9.57 1.37 C9.57 1.86, 9.57 2.35, 9.57 3.42 M9.57 1.37 C9.57 1.96, 9.57 2.55, 9.57 3.42 M9.57 3.42 C9.92 3.42, 10.26 3.42, 10.94 3.42 M9.57 3.42 C9.96 3.42, 10.36 3.42, 10.94 3.42 M10.94 3.42 C10.94 2.69, 10.94 1.97, 10.94 0 M10.94 3.42 C10.94 2.65, 10.94 1.88, 10.94 0 M10.94 0 C7.67 0, 4.4 0, 0 0 M10.94 0 C7.67 0, 4.41 0, 0 0 M0 0 C0 0, 0 0, 0 0 M0 0 C0 0, 0 0, 0 0" stroke="#00000000" stroke-width="1" fill="none"></path></g></g><g stroke-linecap="round"><g transform="translate(207.13454532623268 381.7333332697544) rotate(0 4.101818243662507 1.7090908686320034)" fill-rule="evenodd"><path d="M0 0 L8.2 0 L8.2 3.42 L0 3.42 L0 0" stroke="none" stroke-width="0" fill="#aecbfa" fill-rule="evenodd"></path><path d="M0 0 C3.01 0, 6.01 0, 8.2 0 M0 0 C2.39 0, 4.78 0, 8.2 0 M8.2 0 C8.2 1.23, 8.2 2.45, 8.2 3.42 M8.2 0 C8.2 1.05, 8.2 2.1, 8.2 3.42 M8.2 3.42 C6.35 3.42, 4.5 3.42, 0 3.42 M8.2 3.42 C6.49 3.42, 4.77 3.42, 0 3.42 M0 3.42 C0 2.63, 0 1.84, 0 0 M0 3.42 C0 2.63, 0 1.84, 0 0 M0 0 C0 0, 0 0, 0 0 M0 0 C0 0, 0 0, 0 0" stroke="#00000000" stroke-width="1" fill="none"></path></g></g><g stroke-linecap="round"><g transform="translate(211.236363093058 381.7333332697544) rotate(0 2.0509093602498467 1.7090908686320034)" fill-rule="evenodd"><path d="M0 0 L4.1 0 L4.1 3.42 L0 3.42 L0 0" stroke="none" stroke-width="0" fill="#669df6" fill-rule="evenodd"></path><path d="M0 0 C1.11 0, 2.22 0, 4.1 0 M0 0 C0.92 0, 1.84 0, 4.1 0 M4.1 0 C4.1 0.96, 4.1 1.92, 4.1 3.42 M4.1 0 C4.1 0.9, 4.1 1.81, 4.1 3.42 M4.1 3.42 C3.2 3.42, 2.3 3.42, 0 3.42 M4.1 3.42 C2.63 3.42, 1.16 3.42, 0 3.42 M0 3.42 C0 2.45, 0 1.48, 0 0 M0 3.42 C0 2.09, 0 0.76, 0 0 M0 0 C0 0, 0 0, 0 0 M0 0 C0 0, 0 0, 0 0" stroke="#00000000" stroke-width="1" fill="none"></path></g></g><g stroke-linecap="round"><g transform="translate(213.97090848286928 391.30424181620043) rotate(0 2.0509093602498467 2.0509093602498325)" fill-rule="evenodd"><path d="M0 0 L4.1 0 L4.1 4.1 L0 4.1 L0 0" stroke="none" stroke-width="0" fill="#aecbfa" fill-rule="evenodd"></path><path d="M0 0 C1.61 0, 3.23 0, 4.1 0 M0 0 C1.02 0, 2.03 0, 4.1 0 M4.1 0 C4.1 0.92, 4.1 1.84, 4.1 4.1 M4.1 0 C4.1 1.17, 4.1 2.35, 4.1 4.1 M4.1 4.1 C2.73 4.1, 1.36 4.1, 0 4.1 M4.1 4.1 C3.14 4.1, 2.17 4.1, 0 4.1 M0 4.1 C0 3.17, 0 2.25, 0 0 M0 4.1 C0 2.61, 0 1.12, 0 0 M0 0 C0 0, 0 0, 0 0 M0 0 C0 0, 0 0, 0 0" stroke="#00000000" stroke-width="1" fill="none"></path></g></g><g stroke-linecap="round"><g transform="translate(204.39999993642152 391.30424181620214) rotate(0 2.0509090423583984 2.0509093602498325)" fill-rule="evenodd"><path d="M0 0 L4.1 0 L4.1 4.1 L0 4.1 L0 0" stroke="none" stroke-width="0" fill="#aecbfa" fill-rule="evenodd"></path><path d="M0 0 C1.48 0, 2.97 0, 4.1 0 M0 0 C1.37 0, 2.74 0, 4.1 0 M4.1 0 C4.1 1.57, 4.1 3.15, 4.1 4.1 M4.1 0 C4.1 1.54, 4.1 3.07, 4.1 4.1 M4.1 4.1 C2.81 4.1, 1.52 4.1, 0 4.1 M4.1 4.1 C2.51 4.1, 0.92 4.1, 0 4.1 M0 4.1 C0 2.97, 0 1.84, 0 0 M0 4.1 C0 3.24, 0 2.38, 0 0 M0 0 C0 0, 0 0, 0 0 M0 0 C0 0, 0 0, 0 0" stroke="#00000000" stroke-width="1" fill="none"></path></g></g><g stroke-linecap="round"><g transform="translate(206.45090929667128 391.30424181620214) rotate(0 1.0254543622334893 2.0509093602498325)" fill-rule="evenodd"><path d="M0 0 L2.05 0 L2.05 4.1 L0 4.1 L0 0" stroke="none" stroke-width="0" fill="#669df6" fill-rule="evenodd"></path><path d="M0 0 C0.55 0, 1.11 0, 2.05 0 M0 0 C0.67 0, 1.35 0, 2.05 0 M2.05 0 C2.05 1.27, 2.05 2.55, 2.05 4.1 M2.05 0 C2.05 1.32, 2.05 2.64, 2.05 4.1 M2.05 4.1 C1.37 4.1, 0.69 4.1, 0 4.1 M2.05 4.1 C1.29 4.1, 0.52 4.1, 0 4.1 M0 4.1 C0 2.5, 0 0.89, 0 0 M0 4.1 C0 2.62, 0 1.14, 0 0 M0 0 C0 0, 0 0, 0 0 M0 0 C0 0, 0 0, 0 0" stroke="#00000000" stroke-width="1" fill="none"></path></g></g><g stroke-linecap="round"><g transform="translate(209.18545405069955 391.30424181620214) rotate(0 2.0509093602498467 2.0509093602498325)" fill-rule="evenodd"><path d="M0 0 L4.1 0 L4.1 4.1 L0 4.1 L0 0" stroke="none" stroke-width="0" fill="#aecbfa" fill-rule="evenodd"></path><path d="M0 0 C0.88 0, 1.76 0, 4.1 0 M0 0 C1.06 0, 2.12 0, 4.1 0 M4.1 0 C4.1 1.09, 4.1 2.18, 4.1 4.1 M4.1 0 C4.1 1.5, 4.1 2.99, 4.1 4.1 M4.1 4.1 C3.24 4.1, 2.39 4.1, 0 4.1 M4.1 4.1 C2.48 4.1, 0.86 4.1, 0 4.1 M0 4.1 C0 2.99, 0 1.87, 0 0 M0 4.1 C0 3.05, 0 1.99, 0 0 M0 0 C0 0, 0 0, 0 0 M0 0 C0 0, 0 0, 0 0" stroke="#00000000" stroke-width="1" fill="none"></path></g></g><g stroke-linecap="round"><g transform="translate(211.236363093058 391.3042418162022) rotate(0 1.0254548390706475 2.0509093602498325)" fill-rule="evenodd"><path d="M0 0 L2.05 0 L2.05 4.1 L0 4.1 L0 0" stroke="none" stroke-width="0" fill="#669df6" fill-rule="evenodd"></path><path d="M0 0 C0.59 0, 1.17 0, 2.05 0 M0 0 C0.81 0, 1.62 0, 2.05 0 M2.05 0 C2.05 1.31, 2.05 2.62, 2.05 4.1 M2.05 0 C2.05 1.28, 2.05 2.55, 2.05 4.1 M2.05 4.1 C1.47 4.1, 0.89 4.1, 0 4.1 M2.05 4.1 C1.44 4.1, 0.83 4.1, 0 4.1 M0 4.1 C0 2.8, 0 1.51, 0 0 M0 4.1 C0 3.17, 0 2.25, 0 0 M0 0 C0 0, 0 0, 0 0 M0 0 C0 0, 0 0, 0 0" stroke="#00000000" stroke-width="1" fill="none"></path></g></g><g stroke-linecap="round"><g transform="translate(216.02181879679335 391.3042418162004) rotate(0 1.025454203287751 2.0509093602498325)" fill-rule="evenodd"><path d="M0 0 L2.05 0 L2.05 4.1 L0 4.1 L0 0" stroke="none" stroke-width="0" fill="#669df6" fill-rule="evenodd"></path><path d="M0 0 C0.45 0, 0.9 0, 2.05 0 M0 0 C0.45 0, 0.9 0, 2.05 0 M2.05 0 C2.05 0.83, 2.05 1.66, 2.05 4.1 M2.05 0 C2.05 1.14, 2.05 2.29, 2.05 4.1 M2.05 4.1 C1.64 4.1, 1.22 4.1, 0 4.1 M2.05 4.1 C1.63 4.1, 1.22 4.1, 0 4.1 M0 4.1 C0 2.72, 0 1.34, 0 0 M0 4.1 C0 2.91, 0 1.72, 0 0 M0 0 C0 0, 0 0, 0 0 M0 0 C0 0, 0 0, 0 0" stroke="#00000000" stroke-width="1" fill="none"></path></g></g><g transform="translate(90 410) rotate(0 47 9)"><text x="47" y="14" font-family="Helvetica, Segoe UI Emoji" font-size="16px" fill="#000000" text-anchor="middle" style="white-space: pre;" direction="ltr">Directs traffic</text></g><g stroke-linecap="round" transform="translate(310 390) rotate(0 110 30)"><path d="M6 0 L216.62 0.38 L218.5 1.5 L220 6 L219.62 56.62 L218.5 58.5 L214 60 L3.38 59.62 L1.5 58.5 L0 54 L0 6 L1.5 1.5 L6 0" stroke="none" stroke-width="0" fill="#FFF"></path><path d="M6 0 M6 0 C77.68 0, 149.36 0, 214 0 M6 0 C60.43 0, 114.86 0, 214 0 M214 0 C218 0, 220 2, 220 6 M214 0 C218 0, 220 2, 220 6 M220 6 C220 20.6, 220 35.19, 220 54 M220 6 C220 16.55, 220 27.09, 220 54 M220 54 C220 58, 218 60, 214 60 M220 54 C220 58, 218 60, 214 60 M214 60 C139.34 60, 64.67 60, 6 60 M214 60 C148.6 60, 83.2 60, 6 60 M6 60 C2 60, 0 58, 0 54 M6 60 C2 60, 0 58, 0 54 M0 54 C0 37.82, 0 21.64, 0 6 M0 54 C0 40.25, 0 26.5, 0 6 M0 6 C0 2, 2 0, 6 0 M0 6 C0 2, 2 0, 6 0" stroke="#202124" stroke-width="1" fill="none"></path></g><g transform="translate(324.66666666666663 404.66666666666663) rotate(0 73.33333333333331 9.166666666666671)"><text x="0" y="14.333333333333332" font-family="GoogleSans_Medium, Segoe UI Emoji" font-size="14.666666666666666px" fill="#1A73E8" text-anchor="start" style="white-space: pre;" direction="ltr">Blue Backend Service</text></g><g stroke-linecap="round"><g transform="translate(505.1400001049042 414.5933326085409) rotate(0 -0.9400004148483276 -1.8799997369448391)" fill-rule="evenodd"><path d="M0 0 L-1.88 0 L-1.88 -3.76 L0 -3.76 L0 0" stroke="none" stroke-width="0" fill="#4285f4" fill-rule="evenodd"></path><path d="M0 0 C-0.48 0, -0.96 0, -1.88 0 M0 0 C-0.5 0, -0.99 0, -1.88 0 M-1.88 0 C-1.88 -0.91, -1.88 -1.81, -1.88 -3.76 M-1.88 0 C-1.88 -1.4, -1.88 -2.81, -1.88 -3.76 M-1.88 -3.76 C-1.26 -3.76, -0.64 -3.76, 0 -3.76 M-1.88 -3.76 C-1.22 -3.76, -0.55 -3.76, 0 -3.76 M0 -3.76 C0 -2.79, 0 -1.83, 0 0 M0 -3.76 C0 -3, 0 -2.23, 0 0 M0 0 C0 0, 0 0, 0 0 M0 0 C0 0, 0 0, 0 0" stroke="#00000000" stroke-width="1" fill="none"></path></g></g><g stroke-linecap="round"><g transform="translate(496.679999868075 414.5933326085409) rotate(0 7.519999166329683 2.349999944369003)" fill-rule="evenodd"><path d="M0 0 L0 4.7 L1.88 4.7 L1.88 1.88 L6.58 1.88 L6.58 4.7 L8.46 4.7 L8.46 1.88 L13.16 1.88 L13.16 4.7 L15.04 4.7 L15.04 0 L0 0" stroke="none" stroke-width="0" fill="#669df6" fill-rule="evenodd"></path><path d="M0 0 C0 1.24, 0 2.49, 0 4.7 M0 0 C0 1.35, 0 2.7, 0 4.7 M0 4.7 C0.49 4.7, 0.98 4.7, 1.88 4.7 M0 4.7 C0.62 4.7, 1.23 4.7, 1.88 4.7 M1.88 4.7 C1.88 3.75, 1.88 2.81, 1.88 1.88 M1.88 4.7 C1.88 3.72, 1.88 2.73, 1.88 1.88 M1.88 1.88 C2.98 1.88, 4.08 1.88, 6.58 1.88 M1.88 1.88 C3.35 1.88, 4.82 1.88, 6.58 1.88 M6.58 1.88 C6.58 2.74, 6.58 3.59, 6.58 4.7 M6.58 1.88 C6.58 2.92, 6.58 3.96, 6.58 4.7 M6.58 4.7 C7.08 4.7, 7.59 4.7, 8.46 4.7 M6.58 4.7 C7.3 4.7, 8.02 4.7, 8.46 4.7 M8.46 4.7 C8.46 3.61, 8.46 2.52, 8.46 1.88 M8.46 4.7 C8.46 3.93, 8.46 3.16, 8.46 1.88 M8.46 1.88 C9.54 1.88, 10.62 1.88, 13.16 1.88 M8.46 1.88 C10.05 1.88, 11.64 1.88, 13.16 1.88 M13.16 1.88 C13.16 2.57, 13.16 3.27, 13.16 4.7 M13.16 1.88 C13.16 2.99, 13.16 4.09, 13.16 4.7 M13.16 4.7 C13.78 4.7, 14.41 4.7, 15.04 4.7 M13.16 4.7 C13.7 4.7, 14.25 4.7, 15.04 4.7 M15.04 4.7 C15.04 2.84, 15.04 0.98, 15.04 0 M15.04 4.7 C15.04 3.47, 15.04 2.24, 15.04 0 M15.04 0 C10.01 0, 4.99 0, 0 0 M15.04 0 C11.35 0, 7.66 0, 0 0 M0 0 C0 0, 0 0, 0 0 M0 0 C0 0, 0 0, 0 0" stroke="#00000000" stroke-width="1" fill="none"></path></g></g><g stroke-linecap="round"><g transform="translate(498.55999982357025 406.13333324591315) rotate(0 5.640000085035979 2.349999944369003)" fill-rule="evenodd"><path d="M0 0 L11.28 0 L11.28 4.7 L0 4.7 L0 0" stroke="none" stroke-width="0" fill="#aecbfa" fill-rule="evenodd"></path><path d="M0 0 C4.39 0, 8.77 0, 11.28 0 M0 0 C3.43 0, 6.87 0, 11.28 0 M11.28 0 C11.28 1.68, 11.28 3.36, 11.28 4.7 M11.28 0 C11.28 1.68, 11.28 3.36, 11.28 4.7 M11.28 4.7 C7.49 4.7, 3.69 4.7, 0 4.7 M11.28 4.7 C8.38 4.7, 5.48 4.7, 0 4.7 M0 4.7 C0 3.69, 0 2.68, 0 0 M0 4.7 C0 3.13, 0 1.56, 0 0 M0 0 C0 0, 0 0, 0 0 M0 0 C0 0, 0 0, 0 0" stroke="#00000000" stroke-width="1" fill="none"></path></g></g><g stroke-linecap="round"><g transform="translate(504.1999992529551 406.13333324591315) rotate(0 2.8200003703435073 2.349999944369003)" fill-rule="evenodd"><path d="M0 0 L5.64 0 L5.64 4.7 L0 4.7 L0 0" stroke="none" stroke-width="0" fill="#669df6" fill-rule="evenodd"></path><path d="M0 0 C1.18 0, 2.36 0, 5.64 0 M0 0 C1.93 0, 3.86 0, 5.64 0 M5.64 0 C5.64 0.97, 5.64 1.93, 5.64 4.7 M5.64 0 C5.64 0.95, 5.64 1.9, 5.64 4.7 M5.64 4.7 C4.44 4.7, 3.24 4.7, 0 4.7 M5.64 4.7 C3.55 4.7, 1.46 4.7, 0 4.7 M0 4.7 C0 3.24, 0 1.79, 0 0 M0 4.7 C0 3.55, 0 2.4, 0 0 M0 0 C0 0, 0 0, 0 0 M0 0 C0 0, 0 0, 0 0" stroke="#00000000" stroke-width="1" fill="none"></path></g></g><g stroke-linecap="round"><g transform="translate(507.95999916394544 419.2933324972788) rotate(0 2.8200003703435073 2.8200003703435215)" fill-rule="evenodd"><path d="M0 0 L5.64 0 L5.64 5.64 L0 5.64 L0 0" stroke="none" stroke-width="0" fill="#aecbfa" fill-rule="evenodd"></path><path d="M0 0 C2 0, 4 0, 5.64 0 M0 0 C1.57 0, 3.14 0, 5.64 0 M5.64 0 C5.64 1.19, 5.64 2.38, 5.64 5.64 M5.64 0 C5.64 1.22, 5.64 2.44, 5.64 5.64 M5.64 5.64 C4.15 5.64, 2.66 5.64, 0 5.64 M5.64 5.64 C3.75 5.64, 1.85 5.64, 0 5.64 M0 5.64 C0 3.75, 0 1.87, 0 0 M0 5.64 C0 4.44, 0 3.24, 0 0 M0 0 C0 0, 0 0, 0 0 M0 0 C0 0, 0 0, 0 0" stroke="#00000000" stroke-width="1" fill="none"></path></g></g><g stroke-linecap="round"><g transform="translate(494.7999999125798 419.2933324972788) rotate(0 2.819999933242798 2.8200003703435215)" fill-rule="evenodd"><path d="M0 0 L5.64 0 L5.64 5.64 L0 5.64 L0 0" stroke="none" stroke-width="0" fill="#aecbfa" fill-rule="evenodd"></path><path d="M0 0 C1.42 0, 2.85 0, 5.64 0 M0 0 C1.91 0, 3.82 0, 5.64 0 M5.64 0 C5.64 1.3, 5.64 2.61, 5.64 5.64 M5.64 0 C5.64 1.27, 5.64 2.55, 5.64 5.64 M5.64 5.64 C3.78 5.64, 1.92 5.64, 0 5.64 M5.64 5.64 C4.03 5.64, 2.42 5.64, 0 5.64 M0 5.64 C0 4.05, 0 2.46, 0 0 M0 5.64 C0 3.75, 0 1.85, 0 0 M0 0 C0 0, 0 0, 0 0 M0 0 C0 0, 0 0, 0 0" stroke="#00000000" stroke-width="1" fill="none"></path></g></g><g stroke-linecap="round"><g transform="translate(497.62000028292334 419.2933324972788) rotate(0 1.4099997480710158 2.8200003703435215)" fill-rule="evenodd"><path d="M0 0 L2.82 0 L2.82 5.64 L0 5.64 L0 0" stroke="none" stroke-width="0" fill="#669df6" fill-rule="evenodd"></path><path d="M0 0 C0.86 0, 1.73 0, 2.82 0 M0 0 C0.95 0, 1.9 0, 2.82 0 M2.82 0 C2.82 1.48, 2.82 2.95, 2.82 5.64 M2.82 0 C2.82 1.67, 2.82 3.35, 2.82 5.64 M2.82 5.64 C2.2 5.64, 1.58 5.64, 0 5.64 M2.82 5.64 C2.01 5.64, 1.19 5.64, 0 5.64 M0 5.64 C0 3.87, 0 2.09, 0 0 M0 5.64 C0 4.22, 0 2.79, 0 0 M0 0 C0 0, 0 0, 0 0 M0 0 C0 0, 0 0, 0 0" stroke="#00000000" stroke-width="1" fill="none"></path></g></g><g stroke-linecap="round"><g transform="translate(501.3799993197123 419.2933324972788) rotate(0 2.8200003703435073 2.8200003703435215)" fill-rule="evenodd"><path d="M0 0 L5.64 0 L5.64 5.64 L0 5.64 L0 0" stroke="none" stroke-width="0" fill="#aecbfa" fill-rule="evenodd"></path><path d="M0 0 C2.22 0, 4.44 0, 5.64 0 M0 0 C1.59 0, 3.19 0, 5.64 0 M5.64 0 C5.64 2.21, 5.64 4.42, 5.64 5.64 M5.64 0 C5.64 1.67, 5.64 3.33, 5.64 5.64 M5.64 5.64 C3.65 5.64, 1.66 5.64, 0 5.64 M5.64 5.64 C4.35 5.64, 3.06 5.64, 0 5.64 M0 5.64 C0 3.5, 0 1.36, 0 0 M0 5.64 C0 3.94, 0 2.25, 0 0 M0 0 C0 0, 0 0, 0 0 M0 0 C0 0, 0 0, 0 0" stroke="#00000000" stroke-width="1" fill="none"></path></g></g><g stroke-linecap="round"><g transform="translate(504.1999992529551 419.2933324972788) rotate(0 1.4100004037221083 2.8200003703435215)" fill-rule="evenodd"><path d="M0 0 L2.82 0 L2.82 5.64 L0 5.64 L0 0" stroke="none" stroke-width="0" fill="#669df6" fill-rule="evenodd"></path><path d="M0 0 C0.95 0, 1.91 0, 2.82 0 M0 0 C1.11 0, 2.22 0, 2.82 0 M2.82 0 C2.82 1.92, 2.82 3.83, 2.82 5.64 M2.82 0 C2.82 2.16, 2.82 4.33, 2.82 5.64 M2.82 5.64 C1.93 5.64, 1.04 5.64, 0 5.64 M2.82 5.64 C1.91 5.64, 1 5.64, 0 5.64 M0 5.64 C0 4, 0 2.35, 0 0 M0 5.64 C0 4.3, 0 2.95, 0 0 M0 0 C0 0, 0 0, 0 0 M0 0 C0 0, 0 0, 0 0" stroke="#00000000" stroke-width="1" fill="none"></path></g></g><g stroke-linecap="round"><g transform="translate(510.7800008455912 419.2933324972788) rotate(0 1.4099995295206895 2.8200003703435215)" fill-rule="evenodd"><path d="M0 0 L2.82 0 L2.82 5.64 L0 5.64 L0 0" stroke="none" stroke-width="0" fill="#669df6" fill-rule="evenodd"></path><path d="M0 0 C1.04 0, 2.09 0, 2.82 0 M0 0 C0.79 0, 1.59 0, 2.82 0 M2.82 0 C2.82 1.97, 2.82 3.93, 2.82 5.64 M2.82 0 C2.82 1.37, 2.82 2.74, 2.82 5.64 M2.82 5.64 C2.2 5.64, 1.58 5.64, 0 5.64 M2.82 5.64 C1.98 5.64, 1.13 5.64, 0 5.64 M0 5.64 C0 3.5, 0 1.37, 0 0 M0 5.64 C0 4.22, 0 2.81, 0 0 M0 0 C0 0, 0 0, 0 0 M0 0 C0 0, 0 0, 0 0" stroke="#00000000" stroke-width="1" fill="none"></path></g></g><g stroke-linecap="round" transform="translate(590 390) rotate(0 110 30)"><path d="M6 0 L216.62 0.38 L218.5 1.5 L220 6 L219.62 56.62 L218.5 58.5 L214 60 L3.38 59.62 L1.5 58.5 L0 54 L0 6 L1.5 1.5 L6 0" stroke="none" stroke-width="0" fill="#FFF"></path><path d="M6 0 M6 0 C69.86 0, 133.72 0, 214 0 M6 0 C84.88 0, 163.76 0, 214 0 M214 0 C218 0, 220 2, 220 6 M214 0 C218 0, 220 2, 220 6 M220 6 C220 21.6, 220 37.19, 220 54 M220 6 C220 19.15, 220 32.31, 220 54 M220 54 C220 58, 218 60, 214 60 M220 54 C220 58, 218 60, 214 60 M214 60 C144.11 60, 74.21 60, 6 60 M214 60 C132.44 60, 50.89 60, 6 60 M6 60 C2 60, 0 58, 0 54 M6 60 C2 60, 0 58, 0 54 M0 54 C0 38.43, 0 22.85, 0 6 M0 54 C0 43.55, 0 33.1, 0 6 M0 6 C0 2, 2 0, 6 0 M0 6 C0 2, 2 0, 6 0" stroke="#202124" stroke-width="1" fill="none"></path></g><g transform="translate(604.6666666666666 404.66666666666663) rotate(0 80 9)"><text x="0" y="14" font-family="GoogleSans_Medium, Segoe UI Emoji" font-size="14.666666666666666px" fill="#1A73E8" text-anchor="start" style="white-space: pre;" direction="ltr">Green Backend Service</text></g><g stroke-linecap="round"><g transform="translate(785.1400001049042 414.5933326085409) rotate(0 -0.9400004148483276 -1.8799997369448391)" fill-rule="evenodd"><path d="M0 0 L-1.88 0 L-1.88 -3.76 L0 -3.76 L0 0" stroke="none" stroke-width="0" fill="#4285f4" fill-rule="evenodd"></path><path d="M0 0 C-0.41 0, -0.82 0, -1.88 0 M0 0 C-0.57 0, -1.14 0, -1.88 0 M-1.88 0 C-1.88 -0.81, -1.88 -1.62, -1.88 -3.76 M-1.88 0 C-1.88 -1.33, -1.88 -2.66, -1.88 -3.76 M-1.88 -3.76 C-1.5 -3.76, -1.12 -3.76, 0 -3.76 M-1.88 -3.76 C-1.22 -3.76, -0.57 -3.76, 0 -3.76 M0 -3.76 C0 -2.38, 0 -1.01, 0 0 M0 -3.76 C0 -2.76, 0 -1.77, 0 0 M0 0 C0 0, 0 0, 0 0 M0 0 C0 0, 0 0, 0 0" stroke="#00000000" stroke-width="1" fill="none"></path></g></g><g stroke-linecap="round"><g transform="translate(776.6799998680749 414.5933326085409) rotate(0 7.519999166329683 2.349999944369003)" fill-rule="evenodd"><path d="M0 0 L0 4.7 L1.88 4.7 L1.88 1.88 L6.58 1.88 L6.58 4.7 L8.46 4.7 L8.46 1.88 L13.16 1.88 L13.16 4.7 L15.04 4.7 L15.04 0 L0 0" stroke="none" stroke-width="0" fill="#669df6" fill-rule="evenodd"></path><path d="M0 0 C0 1.53, 0 3.06, 0 4.7 M0 0 C0 1.46, 0 2.93, 0 4.7 M0 4.7 C0.52 4.7, 1.05 4.7, 1.88 4.7 M0 4.7 C0.5 4.7, 1.01 4.7, 1.88 4.7 M1.88 4.7 C1.88 3.64, 1.88 2.58, 1.88 1.88 M1.88 4.7 C1.88 4.13, 1.88 3.55, 1.88 1.88 M1.88 1.88 C3.43 1.88, 4.98 1.88, 6.58 1.88 M1.88 1.88 C3.13 1.88, 4.39 1.88, 6.58 1.88 M6.58 1.88 C6.58 2.68, 6.58 3.49, 6.58 4.7 M6.58 1.88 C6.58 2.55, 6.58 3.22, 6.58 4.7 M6.58 4.7 C7.23 4.7, 7.89 4.7, 8.46 4.7 M6.58 4.7 C7.12 4.7, 7.67 4.7, 8.46 4.7 M8.46 4.7 C8.46 3.79, 8.46 2.89, 8.46 1.88 M8.46 4.7 C8.46 3.68, 8.46 2.66, 8.46 1.88 M8.46 1.88 C9.54 1.88, 10.62 1.88, 13.16 1.88 M8.46 1.88 C10.02 1.88, 11.57 1.88, 13.16 1.88 M13.16 1.88 C13.16 2.6, 13.16 3.33, 13.16 4.7 M13.16 1.88 C13.16 2.93, 13.16 3.98, 13.16 4.7 M13.16 4.7 C13.67 4.7, 14.19 4.7, 15.04 4.7 M13.16 4.7 C13.79 4.7, 14.43 4.7, 15.04 4.7 M15.04 4.7 C15.04 2.97, 15.04 1.23, 15.04 0 M15.04 4.7 C15.04 3.23, 15.04 1.76, 15.04 0 M15.04 0 C9.3 0, 3.55 0, 0 0 M15.04 0 C9.05 0, 3.07 0, 0 0 M0 0 C0 0, 0 0, 0 0 M0 0 C0 0, 0 0, 0 0" stroke="#00000000" stroke-width="1" fill="none"></path></g></g><g stroke-linecap="round"><g transform="translate(778.5599998235703 406.13333324591315) rotate(0 5.640000085035979 2.349999944369003)" fill-rule="evenodd"><path d="M0 0 L11.28 0 L11.28 4.7 L0 4.7 L0 0" stroke="none" stroke-width="0" fill="#aecbfa" fill-rule="evenodd"></path><path d="M0 0 C4.45 0, 8.91 0, 11.28 0 M0 0 C2.51 0, 5.01 0, 11.28 0 M11.28 0 C11.28 1.44, 11.28 2.89, 11.28 4.7 M11.28 0 C11.28 1.79, 11.28 3.58, 11.28 4.7 M11.28 4.7 C7.61 4.7, 3.95 4.7, 0 4.7 M11.28 4.7 C6.82 4.7, 2.36 4.7, 0 4.7 M0 4.7 C0 3.12, 0 1.54, 0 0 M0 4.7 C0 3.22, 0 1.74, 0 0 M0 0 C0 0, 0 0, 0 0 M0 0 C0 0, 0 0, 0 0" stroke="#00000000" stroke-width="1" fill="none"></path></g></g><g stroke-linecap="round"><g transform="translate(784.199999252955 406.13333324591315) rotate(0 2.8200003703435073 2.349999944369003)" fill-rule="evenodd"><path d="M0 0 L5.64 0 L5.64 4.7 L0 4.7 L0 0" stroke="none" stroke-width="0" fill="#669df6" fill-rule="evenodd"></path><path d="M0 0 C1.4 0, 2.81 0, 5.64 0 M0 0 C1.51 0, 3.01 0, 5.64 0 M5.64 0 C5.64 1.09, 5.64 2.18, 5.64 4.7 M5.64 0 C5.64 1.82, 5.64 3.63, 5.64 4.7 M5.64 4.7 C3.58 4.7, 1.52 4.7, 0 4.7 M5.64 4.7 C3.79 4.7, 1.93 4.7, 0 4.7 M0 4.7 C0 3.14, 0 1.58, 0 0 M0 4.7 C0 3.51, 0 2.32, 0 0 M0 0 C0 0, 0 0, 0 0 M0 0 C0 0, 0 0, 0 0" stroke="#00000000" stroke-width="1" fill="none"></path></g></g><g stroke-linecap="round"><g transform="translate(787.9599991639454 419.2933324972788) rotate(0 2.8200003703435073 2.8200003703435215)" fill-rule="evenodd"><path d="M0 0 L5.64 0 L5.64 5.64 L0 5.64 L0 0" stroke="none" stroke-width="0" fill="#aecbfa" fill-rule="evenodd"></path><path d="M0 0 C2.05 0, 4.09 0, 5.64 0 M0 0 C1.83 0, 3.65 0, 5.64 0 M5.64 0 C5.64 1.56, 5.64 3.12, 5.64 5.64 M5.64 0 C5.64 2.25, 5.64 4.5, 5.64 5.64 M5.64 5.64 C4.07 5.64, 2.51 5.64, 0 5.64 M5.64 5.64 C3.99 5.64, 2.34 5.64, 0 5.64 M0 5.64 C0 4.12, 0 2.6, 0 0 M0 5.64 C0 3.9, 0 2.16, 0 0 M0 0 C0 0, 0 0, 0 0 M0 0 C0 0, 0 0, 0 0" stroke="#00000000" stroke-width="1" fill="none"></path></g></g><g stroke-linecap="round"><g transform="translate(774.7999999125798 419.2933324972788) rotate(0 2.819999933242798 2.8200003703435215)" fill-rule="evenodd"><path d="M0 0 L5.64 0 L5.64 5.64 L0 5.64 L0 0" stroke="none" stroke-width="0" fill="#aecbfa" fill-rule="evenodd"></path><path d="M0 0 C1.17 0, 2.34 0, 5.64 0 M0 0 C2.19 0, 4.38 0, 5.64 0 M5.64 0 C5.64 1.94, 5.64 3.89, 5.64 5.64 M5.64 0 C5.64 1.62, 5.64 3.25, 5.64 5.64 M5.64 5.64 C3.54 5.64, 1.43 5.64, 0 5.64 M5.64 5.64 C4.19 5.64, 2.74 5.64, 0 5.64 M0 5.64 C0 3.81, 0 1.98, 0 0 M0 5.64 C0 3.48, 0 1.32, 0 0 M0 0 C0 0, 0 0, 0 0 M0 0 C0 0, 0 0, 0 0" stroke="#00000000" stroke-width="1" fill="none"></path></g></g><g stroke-linecap="round"><g transform="translate(777.6200002829232 419.2933324972788) rotate(0 1.4099997480710158 2.8200003703435215)" fill-rule="evenodd"><path d="M0 0 L2.82 0 L2.82 5.64 L0 5.64 L0 0" stroke="none" stroke-width="0" fill="#669df6" fill-rule="evenodd"></path><path d="M0 0 C0.8 0, 1.61 0, 2.82 0 M0 0 C1.04 0, 2.08 0, 2.82 0 M2.82 0 C2.82 1.15, 2.82 2.3, 2.82 5.64 M2.82 0 C2.82 2.25, 2.82 4.51, 2.82 5.64 M2.82 5.64 C2.22 5.64, 1.62 5.64, 0 5.64 M2.82 5.64 C2.24 5.64, 1.66 5.64, 0 5.64 M0 5.64 C0 3.68, 0 1.73, 0 0 M0 5.64 C0 3.79, 0 1.93, 0 0 M0 0 C0 0, 0 0, 0 0 M0 0 C0 0, 0 0, 0 0" stroke="#00000000" stroke-width="1" fill="none"></path></g></g><g stroke-linecap="round"><g transform="translate(781.3799993197122 419.2933324972788) rotate(0 2.8200003703435073 2.8200003703435215)" fill-rule="evenodd"><path d="M0 0 L5.64 0 L5.64 5.64 L0 5.64 L0 0" stroke="none" stroke-width="0" fill="#aecbfa" fill-rule="evenodd"></path><path d="M0 0 C2.2 0, 4.4 0, 5.64 0 M0 0 C1.58 0, 3.16 0, 5.64 0 M5.64 0 C5.64 1.58, 5.64 3.17, 5.64 5.64 M5.64 0 C5.64 1.74, 5.64 3.47, 5.64 5.64 M5.64 5.64 C4.06 5.64, 2.49 5.64, 0 5.64 M5.64 5.64 C4.46 5.64, 3.28 5.64, 0 5.64 M0 5.64 C0 3.66, 0 1.68, 0 0 M0 5.64 C0 3.86, 0 2.07, 0 0 M0 0 C0 0, 0 0, 0 0 M0 0 C0 0, 0 0, 0 0" stroke="#00000000" stroke-width="1" fill="none"></path></g></g><g stroke-linecap="round"><g transform="translate(784.199999252955 419.2933324972788) rotate(0 1.4100004037221083 2.8200003703435215)" fill-rule="evenodd"><path d="M0 0 L2.82 0 L2.82 5.64 L0 5.64 L0 0" stroke="none" stroke-width="0" fill="#669df6" fill-rule="evenodd"></path><path d="M0 0 C0.7 0, 1.4 0, 2.82 0 M0 0 C0.66 0, 1.33 0, 2.82 0 M2.82 0 C2.82 2.04, 2.82 4.08, 2.82 5.64 M2.82 0 C2.82 1.81, 2.82 3.62, 2.82 5.64 M2.82 5.64 C1.85 5.64, 0.88 5.64, 0 5.64 M2.82 5.64 C2.04 5.64, 1.25 5.64, 0 5.64 M0 5.64 C0 4.05, 0 2.46, 0 0 M0 5.64 C0 4.13, 0 2.62, 0 0 M0 0 C0 0, 0 0, 0 0 M0 0 C0 0, 0 0, 0 0" stroke="#00000000" stroke-width="1" fill="none"></path></g></g><g stroke-linecap="round"><g transform="translate(790.7800008455911 419.2933324972788) rotate(0 1.4099995295206895 2.8200003703435215)" fill-rule="evenodd"><path d="M0 0 L2.82 0 L2.82 5.64 L0 5.64 L0 0" stroke="none" stroke-width="0" fill="#669df6" fill-rule="evenodd"></path><path d="M0 0 C0.65 0, 1.3 0, 2.82 0 M0 0 C0.88 0, 1.75 0, 2.82 0 M2.82 0 C2.82 2.14, 2.82 4.28, 2.82 5.64 M2.82 0 C2.82 1.19, 2.82 2.38, 2.82 5.64 M2.82 5.64 C2.05 5.64, 1.27 5.64, 0 5.64 M2.82 5.64 C1.96 5.64, 1.11 5.64, 0 5.64 M0 5.64 C0 3.43, 0 1.22, 0 0 M0 5.64 C0 4.04, 0 2.43, 0 0 M0 0 C0 0, 0 0, 0 0 M0 0 C0 0, 0 0, 0 0" stroke="#00000000" stroke-width="1" fill="none"></path></g></g><g stroke-linecap="round"><g transform="translate(230 410) rotate(0 90 -30)"><path d="M0 0 C13.71 0, 27.42 0, 40 0 M0 0 C9.28 0, 18.56 0, 40 0 M40 0 C40 -21.78, 40 -43.55, 40 -60 M40 0 C40 -15.99, 40 -31.97, 40 -60 M40 -60 C90.61 -60, 141.22 -60, 180 -60 M40 -60 C74.04 -60, 108.08 -60, 180 -60 M180 -60 C180 -46.46, 180 -32.91, 180 -20 M180 -60 C180 -47.74, 180 -35.49, 180 -20" stroke="#202124" stroke-width="1" fill="none"></path></g><g transform="translate(230 410) rotate(0 90 -30)"><path d="M180 -20 L173.66 -33.59 L186.34 -33.59 L180 -20" stroke="none" stroke-width="0" fill="#202124" fill-rule="evenodd"></path><path d="M180 -20 C177.83 -24.66, 175.65 -29.32, 173.66 -33.59 M180 -20 C178.53 -23.15, 177.06 -26.31, 173.66 -33.59 M173.66 -33.59 C178.26 -33.59, 182.86 -33.59, 186.34 -33.59 M173.66 -33.59 C177.04 -33.59, 180.42 -33.59, 186.34 -33.59 M186.34 -33.59 C184.05 -28.68, 181.76 -23.77, 180 -20 M186.34 -33.59 C184.8 -30.29, 183.26 -26.98, 180 -20 M180 -20 C180 -20, 180 -20, 180 -20 M180 -20 C180 -20, 180 -20, 180 -20" stroke="#202124" stroke-width="1" fill="none"></path></g></g><g stroke-linecap="round"><g transform="translate(410 350) rotate(0 150 20)"><path d="M0 0 C78.21 0, 156.41 0, 300 0 M0 0 C87.27 0, 174.54 0, 300 0 M300 0 C300 9.92, 300 19.85, 300 40 M300 0 C300 12.34, 300 24.69, 300 40" stroke="#202124" stroke-width="1" fill="none"></path></g><g transform="translate(410 350) rotate(0 150 20)"><path d="M300 40 L293.66 26.41 L306.34 26.41 L300 40" stroke="none" stroke-width="0" fill="#202124" fill-rule="evenodd"></path><path d="M300 40 C298.35 36.46, 296.69 32.91, 293.66 26.41 M300 40 C298.16 36.05, 296.31 32.09, 293.66 26.41 M293.66 26.41 C296.81 26.41, 299.95 26.41, 306.34 26.41 M293.66 26.41 C297.57 26.41, 301.49 26.41, 306.34 26.41 M306.34 26.41 C304.48 30.4, 302.61 34.4, 300 40 M306.34 26.41 C304.26 30.85, 302.19 35.3, 300 40 M300 40 C300 40, 300 40, 300 40 M300 40 C300 40, 300 40, 300 40" stroke="#202124" stroke-width="1" fill="none"></path></g></g><g stroke-linecap="round" transform="translate(430 310) rotate(0 16 16)"><path d="M32 16 C32 16.93, 31.92 17.87, 31.76 18.78 C31.6 19.69, 31.35 20.6, 31.04 21.47 C30.72 22.34, 30.32 23.2, 29.86 24 C29.39 24.8, 28.85 25.58, 28.26 26.28 C27.66 26.99, 26.99 27.66, 26.28 28.26 C25.58 28.85, 24.8 29.39, 24 29.86 C23.2 30.32, 22.34 30.72, 21.47 31.04 C20.6 31.35, 19.69 31.6, 18.78 31.76 C17.87 31.92, 16.93 32, 16 32 C15.07 32, 14.13 31.92, 13.22 31.76 C12.31 31.6, 11.4 31.35, 10.53 31.04 C9.66 30.72, 8.8 30.32, 8 29.86 C7.2 29.39, 6.42 28.85, 5.72 28.26 C5.01 27.66, 4.34 26.99, 3.74 26.28 C3.15 25.58, 2.61 24.8, 2.14 24 C1.68 23.2, 1.28 22.34, 0.96 21.47 C0.65 20.6, 0.4 19.69, 0.24 18.78 C0.08 17.87, 0 16.93, 0 16 C0 15.07, 0.08 14.13, 0.24 13.22 C0.4 12.31, 0.65 11.4, 0.96 10.53 C1.28 9.66, 1.68 8.8, 2.14 8 C2.61 7.2, 3.15 6.42, 3.74 5.72 C4.34 5.01, 5.01 4.34, 5.72 3.74 C6.42 3.15, 7.2 2.61, 8 2.14 C8.8 1.68, 9.66 1.28, 10.53 0.96 C11.4 0.65, 12.31 0.4, 13.22 0.24 C14.13 0.08, 15.07 0, 16 0 C16.93 0, 17.87 0.08, 18.78 0.24 C19.69 0.4, 20.6 0.65, 21.47 0.96 C22.34 1.28, 23.2 1.68, 24 2.14 C24.8 2.61, 25.58 3.15, 26.28 3.74 C26.99 4.34, 27.66 5.01, 28.26 5.72 C28.85 6.42, 29.39 7.2, 29.86 8 C30.32 8.8, 30.72 9.66, 31.04 10.53 C31.35 11.4, 31.6 12.31, 31.76 13.22 C31.92 14.13, 31.96 15.54, 32 16 C32.04 16.46, 32.04 15.54, 32 16" stroke="none" stroke-width="0" fill="#202124"></path><path d="M32 16 C32 16.93, 31.92 17.87, 31.76 18.78 C31.6 19.69, 31.35 20.6, 31.04 21.47 C30.72 22.34, 30.32 23.2, 29.86 24 C29.39 24.8, 28.85 25.58, 28.26 26.28 C27.66 26.99, 26.99 27.66, 26.28 28.26 C25.58 28.85, 24.8 29.39, 24 29.86 C23.2 30.32, 22.34 30.72, 21.47 31.04 C20.6 31.35, 19.69 31.6, 18.78 31.76 C17.87 31.92, 16.93 32, 16 32 C15.07 32, 14.13 31.92, 13.22 31.76 C12.31 31.6, 11.4 31.35, 10.53 31.04 C9.66 30.72, 8.8 30.32, 8 29.86 C7.2 29.39, 6.42 28.85, 5.72 28.26 C5.01 27.66, 4.34 26.99, 3.74 26.28 C3.15 25.58, 2.61 24.8, 2.14 24 C1.68 23.2, 1.28 22.34, 0.96 21.47 C0.65 20.6, 0.4 19.69, 0.24 18.78 C0.08 17.87, 0 16.93, 0 16 C0 15.07, 0.08 14.13, 0.24 13.22 C0.4 12.31, 0.65 11.4, 0.96 10.53 C1.28 9.66, 1.68 8.8, 2.14 8 C2.61 7.2, 3.15 6.42, 3.74 5.72 C4.34 5.01, 5.01 4.34, 5.72 3.74 C6.42 3.15, 7.2 2.61, 8 2.14 C8.8 1.68, 9.66 1.28, 10.53 0.96 C11.4 0.65, 12.31 0.4, 13.22 0.24 C14.13 0.08, 15.07 0, 16 0 C16.93 0, 17.87 0.08, 18.78 0.24 C19.69 0.4, 20.6 0.65, 21.47 0.96 C22.34 1.28, 23.2 1.68, 24 2.14 C24.8 2.61, 25.58 3.15, 26.28 3.74 C26.99 4.34, 27.66 5.01, 28.26 5.72 C28.85 6.42, 29.39 7.2, 29.86 8 C30.32 8.8, 30.72 9.66, 31.04 10.53 C31.35 11.4, 31.6 12.31, 31.76 13.22 C31.92 14.13, 31.96 15.54, 32 16 C32.04 16.46, 32.04 15.54, 32 16" stroke="#202124" stroke-width="2" fill="none"></path></g><g transform="translate(440.5 318) rotate(0 4.5 8)"><text x="4.5" y="13" font-family="Helvetica, Segoe UI Emoji" font-size="14px" fill="#FFFFFF" text-anchor="middle" style="white-space: pre;" direction="ltr">2</text></g><g stroke-linecap="round" transform="translate(310 470) rotate(0 110 30)"><path d="M6 0 L216.63 0.38 L218.5 1.5 L220 6 L219.63 56.62 L218.5 58.5 L214 60 L3.38 59.62 L1.5 58.5 L0 54 L0 6 L1.5 1.5 L6 0" stroke="none" stroke-width="0" fill="#FFF"></path><path d="M6 0 M6 0 C54.52 0, 103.03 0, 214 0 M6 0 C64.25 0, 122.5 0, 214 0 M214 0 C218 0, 220 2, 220 6 M214 0 C218 0, 220 2, 220 6 M220 6 C220 23.25, 220 40.51, 220 54 M220 6 C220 16.63, 220 27.25, 220 54 M220 54 C220 58, 218 60, 214 60 M220 54 C220 58, 218 60, 214 60 M214 60 C153.66 60, 93.33 60, 6 60 M214 60 C159.74 60, 105.48 60, 6 60 M6 60 C2 60, 0 58, 0 54 M6 60 C2 60, 0 58, 0 54 M0 54 C0 42.1, 0 30.2, 0 6 M0 54 C0 38.38, 0 22.76, 0 6 M0 6 C0 2, 2 0, 6 0 M0 6 C0 2, 2 0, 6 0" stroke="#202124" stroke-width="1" fill="none"></path></g><g transform="translate(324.6666666666667 484.6666666666667) rotate(0 69.66666666666666 9.166666666666657)"><text x="0" y="14.333333333333332" font-family="GoogleSans_Medium, Segoe UI Emoji" font-size="14.666666666666664px" fill="#1A73E8" text-anchor="start" style="white-space: pre;" direction="ltr">Blue Virtual Machine</text></g><g stroke-linecap="round"><g transform="translate(503.3712991078694 485.63615815838176) rotate(0 0.999321977297484 1.998644009232521)" fill-rule="evenodd"><path d="M0 0 L2 0 L2 4 L0 4 L0 0" stroke="none" stroke-width="0" fill="#669df6" fill-rule="evenodd"></path><path d="M0 0 C0.44 0, 0.88 0, 2 0 M0 0 C0.55 0, 1.09 0, 2 0 M2 0 C2 1.19, 2 2.38, 2 4 M2 0 C2 0.91, 2 1.81, 2 4 M2 4 C1.35 4, 0.7 4, 0 4 M2 4 C1.41 4, 0.81 4, 0 4 M0 4 C0 2.78, 0 1.57, 0 0 M0 4 C0 2.92, 0 1.85, 0 0 M0 0 C0 0, 0 0, 0 0 M0 0 C0 0, 0 0, 0 0" stroke="#00000000" stroke-width="1" fill="none"></path></g></g><g stroke-linecap="round"><g transform="translate(499.37401119867957 485.63615815838176) rotate(0 0.999321977297484 1.998644009232521)" fill-rule="evenodd"><path d="M0 0 L2 0 L2 4 L0 4 L0 0" stroke="none" stroke-width="0" fill="#669df6" fill-rule="evenodd"></path><path d="M0 0 C0.47 0, 0.95 0, 2 0 M0 0 C0.68 0, 1.36 0, 2 0 M2 0 C2 1.34, 2 2.69, 2 4 M2 0 C2 0.89, 2 1.77, 2 4 M2 4 C1.42 4, 0.85 4, 0 4 M2 4 C1.55 4, 1.1 4, 0 4 M0 4 C0 3.18, 0 2.35, 0 0 M0 4 C0 2.42, 0 0.83, 0 0 M0 0 C0 0, 0 0, 0 0 M0 0 C0 0, 0 0, 0 0" stroke="#00000000" stroke-width="1" fill="none"></path></g></g><g stroke-linecap="round"><g transform="translate(507.3685870170593 485.63615815838176) rotate(0 0.9993224143981934 1.998644009232521)" fill-rule="evenodd"><path d="M0 0 L2 0 L2 4 L0 4 L0 0" stroke="none" stroke-width="0" fill="#669df6" fill-rule="evenodd"></path><path d="M0 0 C0.57 0, 1.14 0, 2 0 M0 0 C0.68 0, 1.35 0, 2 0 M2 0 C2 1.13, 2 2.25, 2 4 M2 0 C2 0.84, 2 1.69, 2 4 M2 4 C1.46 4, 0.91 4, 0 4 M2 4 C1.25 4, 0.5 4, 0 4 M0 4 C0 3.03, 0 2.06, 0 0 M0 4 C0 2.77, 0 1.55, 0 0 M0 0 C0 0, 0 0, 0 0 M0 0 C0 0, 0 0, 0 0" stroke="#00000000" stroke-width="1" fill="none"></path></g></g><g stroke-linecap="round"><g transform="translate(503.3712991078694 501.6253094673157) rotate(0 0.999321977297484 1.9986439545949395)" fill-rule="evenodd"><path d="M0 0 L2 0 L2 4 L0 4 L0 0" stroke="none" stroke-width="0" fill="#4285f4" fill-rule="evenodd"></path><path d="M0 0 C0.48 0, 0.96 0, 2 0 M0 0 C0.57 0, 1.13 0, 2 0 M2 0 C2 1.38, 2 2.76, 2 4 M2 0 C2 1.18, 2 2.37, 2 4 M2 4 C1.21 4, 0.43 4, 0 4 M2 4 C1.27 4, 0.54 4, 0 4 M0 4 C0 2.41, 0 0.82, 0 0 M0 4 C0 3.15, 0 2.3, 0 0 M0 0 C0 0, 0 0, 0 0 M0 0 C0 0, 0 0, 0 0" stroke="#00000000" stroke-width="1" fill="none"></path></g></g><g stroke-linecap="round"><g transform="translate(499.37401119867957 501.6253094673157) rotate(0 0.999321977297484 1.9986439545949395)" fill-rule="evenodd"><path d="M0 0 L2 0 L2 4 L0 4 L0 0" stroke="none" stroke-width="0" fill="#4285f4" fill-rule="evenodd"></path><path d="M0 0 C0.73 0, 1.47 0, 2 0 M0 0 C0.73 0, 1.45 0, 2 0 M2 0 C2 0.97, 2 1.93, 2 4 M2 0 C2 0.95, 2 1.91, 2 4 M2 4 C1.32 4, 0.64 4, 0 4 M2 4 C1.55 4, 1.1 4, 0 4 M0 4 C0 3.11, 0 2.22, 0 0 M0 4 C0 3.17, 0 2.34, 0 0 M0 0 C0 0, 0 0, 0 0 M0 0 C0 0, 0 0, 0 0" stroke="#00000000" stroke-width="1" fill="none"></path></g></g><g stroke-linecap="round"><g transform="translate(507.3685870170593 501.6253094673157) rotate(0 0.9993224143981934 1.9986439545949395)" fill-rule="evenodd"><path d="M0 0 L2 0 L2 4 L0 4 L0 0" stroke="none" stroke-width="0" fill="#4285f4" fill-rule="evenodd"></path><path d="M0 0 C0.41 0, 0.82 0, 2 0 M0 0 C0.75 0, 1.51 0, 2 0 M2 0 C2 1.31, 2 2.61, 2 4 M2 0 C2 0.82, 2 1.64, 2 4 M2 4 C1.3 4, 0.61 4, 0 4 M2 4 C1.45 4, 0.9 4, 0 4 M0 4 C0 2.81, 0 1.62, 0 0 M0 4 C0 2.53, 0 1.07, 0 0 M0 0 C0 0, 0 0, 0 0 M0 0 C0 0, 0 0, 0 0" stroke="#00000000" stroke-width="1" fill="none"></path></g></g><g stroke-linecap="round"><g transform="translate(510.36655251185095 494.6300569375356) rotate(0 1.998643954594911 0.9993215401967461)" fill-rule="evenodd"><path d="M0 0 L4 0 L4 2 L0 2 L0 0" stroke="none" stroke-width="0" fill="#4285f4" fill-rule="evenodd"></path><path d="M0 0 C1.31 0, 2.63 0, 4 0 M0 0 C1.49 0, 2.99 0, 4 0 M4 0 C4 0.56, 4 1.12, 4 2 M4 0 C4 0.79, 4 1.58, 4 2 M4 2 C3.11 2, 2.23 2, 0 2 M4 2 C2.61 2, 1.22 2, 0 2 M0 2 C0 1.48, 0 0.96, 0 0 M0 2 C0 1.51, 0 1.02, 0 0 M0 0 C0 0, 0 0, 0 0 M0 0 C0 0, 0 0, 0 0" stroke="#00000000" stroke-width="1" fill="none"></path></g></g><g stroke-linecap="round"><g transform="translate(510.36655251185095 498.627343972524) rotate(0 1.998643954594911 0.9993224143981934)" fill-rule="evenodd"><path d="M0 0 L4 0 L4 2 L0 2 L0 0" stroke="none" stroke-width="0" fill="#4285f4" fill-rule="evenodd"></path><path d="M0 0 C1.08 0, 2.16 0, 4 0 M0 0 C0.83 0, 1.67 0, 4 0 M4 0 C4 0.67, 4 1.34, 4 2 M4 0 C4 0.73, 4 1.45, 4 2 M4 2 C2.88 2, 1.77 2, 0 2 M4 2 C2.62 2, 1.25 2, 0 2 M0 2 C0 1.48, 0 0.96, 0 0 M0 2 C0 1.27, 0 0.54, 0 0 M0 0 C0 0, 0 0, 0 0 M0 0 C0 0, 0 0, 0 0" stroke="#00000000" stroke-width="1" fill="none"></path></g></g><g stroke-linecap="round"><g transform="translate(510.36655251185095 490.6327681541443) rotate(0 1.998643954594911 0.9993219772974555)" fill-rule="evenodd"><path d="M0 0 L4 0 L4 2 L0 2 L0 0" stroke="none" stroke-width="0" fill="#4285f4" fill-rule="evenodd"></path><path d="M0 0 C1.52 0, 3.05 0, 4 0 M0 0 C1.4 0, 2.79 0, 4 0 M4 0 C4 0.57, 4 1.14, 4 2 M4 0 C4 0.77, 4 1.55, 4 2 M4 2 C3.12 2, 2.25 2, 0 2 M4 2 C2.65 2, 1.3 2, 0 2 M0 2 C0 1.55, 0 1.1, 0 0 M0 2 C0 1.48, 0 0.97, 0 0 M0 0 C0 0, 0 0, 0 0 M0 0 C0 0, 0 0, 0 0" stroke="#00000000" stroke-width="1" fill="none"></path></g></g><g stroke-linecap="round"><g transform="translate(494.3774010936419 494.6300569375356) rotate(0 1.998643845319748 0.9993215401967461)" fill-rule="evenodd"><path d="M0 0 L4 0 L4 2 L0 2 L0 0" stroke="none" stroke-width="0" fill="#669df6" fill-rule="evenodd"></path><path d="M0 0 C1.18 0, 2.35 0, 4 0 M0 0 C1.11 0, 2.22 0, 4 0 M4 0 C4 0.44, 4 0.88, 4 2 M4 0 C4 0.67, 4 1.34, 4 2 M4 2 C2.5 2, 0.99 2, 0 2 M4 2 C2.64 2, 1.28 2, 0 2 M0 2 C0 1.25, 0 0.49, 0 0 M0 2 C0 1.35, 0 0.7, 0 0 M0 0 C0 0, 0 0, 0 0 M0 0 C0 0, 0 0, 0 0" stroke="#00000000" stroke-width="1" fill="none"></path></g></g><g stroke-linecap="round"><g transform="translate(494.3774010936419 498.627343972524) rotate(0 1.998643845319748 0.9993224143981934)" fill-rule="evenodd"><path d="M0 0 L4 0 L4 2 L0 2 L0 0" stroke="none" stroke-width="0" fill="#669df6" fill-rule="evenodd"></path><path d="M0 0 C1.54 0, 3.08 0, 4 0 M0 0 C0.93 0, 1.86 0, 4 0 M4 0 C4 0.44, 4 0.87, 4 2 M4 0 C4 0.72, 4 1.44, 4 2 M4 2 C2.61 2, 1.22 2, 0 2 M4 2 C2.84 2, 1.68 2, 0 2 M0 2 C0 1.35, 0 0.71, 0 0 M0 2 C0 1.5, 0 1.01, 0 0 M0 0 C0 0, 0 0, 0 0 M0 0 C0 0, 0 0, 0 0" stroke="#00000000" stroke-width="1" fill="none"></path></g></g><g stroke-linecap="round"><g transform="translate(494.3774010936419 490.6327681541443) rotate(0 1.998643845319748 0.9993219772974555)" fill-rule="evenodd"><path d="M0 0 L4 0 L4 2 L0 2 L0 0" stroke="none" stroke-width="0" fill="#669df6" fill-rule="evenodd"></path><path d="M0 0 C1.09 0, 2.19 0, 4 0 M0 0 C1.19 0, 2.38 0, 4 0 M4 0 C4 0.45, 4 0.91, 4 2 M4 0 C4 0.65, 4 1.3, 4 2 M4 2 C2.81 2, 1.62 2, 0 2 M4 2 C2.78 2, 1.57 2, 0 2 M0 2 C0 1.46, 0 0.92, 0 0 M0 2 C0 1.46, 0 0.92, 0 0 M0 0 C0 0, 0 0, 0 0 M0 0 C0 0, 0 0, 0 0" stroke="#00000000" stroke-width="1" fill="none"></path></g></g><g stroke-linecap="round"><g transform="translate(497.3753672440846 488.6341241995494) rotate(0 6.995253841082274 6.995253841082246)" fill-rule="evenodd"><path d="M0 0 L0 13.99 L13.99 13.99 L13.99 0 L0 0 L0 0" stroke="none" stroke-width="0" fill="#aecbfa" fill-rule="evenodd"></path><path d="M0 0 C0 4.76, 0 9.52, 0 13.99 M0 0 C0 4.71, 0 9.41, 0 13.99 M0 13.99 C3.1 13.99, 6.21 13.99, 13.99 13.99 M0 13.99 C4.02 13.99, 8.04 13.99, 13.99 13.99 M13.99 13.99 C13.99 10.85, 13.99 7.71, 13.99 0 M13.99 13.99 C13.99 11.11, 13.99 8.24, 13.99 0 M13.99 0 C8.46 0, 2.92 0, 0 0 M13.99 0 C8.43 0, 2.86 0, 0 0 M0 0 C0 0, 0 0, 0 0 M0 0 C0 0, 0 0, 0 0 M0 0 C0 0, 0 0, 0 0 M0 0 C0 0, 0 0, 0 0" stroke="#00000000" stroke-width="1" fill="none"></path></g></g><g stroke-linecap="round"><g transform="translate(509.3672318458557 500.6259888013204) rotate(0 -4.996610323588072 -4.996610323588044)" fill-rule="evenodd"><path d="M0 0 L-9.99 0 L-9.99 -9.99 L0 -9.99 L0 0 L0 0" stroke="none" stroke-width="0" fill="#aecbfa" fill-rule="evenodd"></path><path d="M0 0 C-3.38 0, -6.76 0, -9.99 0 M0 0 C-2.81 0, -5.63 0, -9.99 0 M-9.99 0 C-9.99 -2.11, -9.99 -4.22, -9.99 -9.99 M-9.99 0 C-9.99 -2.72, -9.99 -5.43, -9.99 -9.99 M-9.99 -9.99 C-6.24 -9.99, -2.49 -9.99, 0 -9.99 M-9.99 -9.99 C-7.57 -9.99, -5.14 -9.99, 0 -9.99 M0 -9.99 C0 -6.93, 0 -3.87, 0 0 M0 -9.99 C0 -7.85, 0 -5.71, 0 0 M0 0 C0 0, 0 0, 0 0 M0 0 C0 0, 0 0, 0 0 M0 0 C0 0, 0 0, 0 0 M0 0 C0 0, 0 0, 0 0" stroke="#00000000" stroke-width="1" fill="none"></path></g></g><g stroke-linecap="round"><g transform="translate(509.3672318458557 500.6259888013204) rotate(0 -4.996610323588072 -4.996610323588044)" fill-rule="evenodd"><path d="M0 0 L-9.99 0 L-9.99 -9.99 L0 -9.99 L0 0 L0 0" stroke="none" stroke-width="0" fill="#fff" fill-rule="evenodd"></path><path d="M0 0 C-2.83 0, -5.66 0, -9.99 0 M0 0 C-3.45 0, -6.9 0, -9.99 0 M-9.99 0 C-9.99 -2.96, -9.99 -5.92, -9.99 -9.99 M-9.99 0 C-9.99 -3.93, -9.99 -7.85, -9.99 -9.99 M-9.99 -9.99 C-6.35 -9.99, -2.7 -9.99, 0 -9.99 M-9.99 -9.99 C-6.02 -9.99, -2.05 -9.99, 0 -9.99 M0 -9.99 C0 -7.87, 0 -5.74, 0 0 M0 -9.99 C0 -7.32, 0 -4.65, 0 0 M0 0 C0 0, 0 0, 0 0 M0 0 C0 0, 0 0, 0 0 M0 0 C0 0, 0 0, 0 0 M0 0 C0 0, 0 0, 0 0" stroke="#00000000" stroke-width="1" fill="none"></path></g></g><g stroke-linecap="round"><g transform="translate(501.37265515327454 492.6314121087392) rotate(0 2.997965931892395 2.997965931892395)" fill-rule="evenodd"><path d="M0 0 L6 0 L6 6 L0 6 L0 0" stroke="none" stroke-width="0" fill="#aecbfa" fill-rule="evenodd"></path><path d="M0 0 C2.18 0, 4.36 0, 6 0 M0 0 C1.45 0, 2.9 0, 6 0 M6 0 C6 1.43, 6 2.86, 6 6 M6 0 C6 2.04, 6 4.08, 6 6 M6 6 C4.65 6, 3.3 6, 0 6 M6 6 C4.66 6, 3.33 6, 0 6 M0 6 C0 4.75, 0 3.51, 0 0 M0 6 C0 4.39, 0 2.78, 0 0 M0 0 C0 0, 0 0, 0 0 M0 0 C0 0, 0 0, 0 0" stroke="#00000000" stroke-width="1" fill="none"></path></g></g><g stroke-linecap="round"><g transform="translate(501.37265515327454 498.627343972524) rotate(0 2.997965931892395 -1.4989827473958428)" fill-rule="evenodd"><path d="M0 0 L6 0 L3 -3 L0 0" stroke="none" stroke-width="0" fill="#669df6" fill-rule="evenodd"></path><path d="M0 0 C2.26 0, 4.52 0, 6 0 M0 0 C1.96 0, 3.92 0, 6 0 M6 0 C5.38 -0.61, 4.77 -1.23, 3 -3 M6 0 C4.95 -1.04, 3.91 -2.08, 3 -3 M3 -3 C2.17 -2.17, 1.35 -1.35, 0 0 M3 -3 C2.11 -2.11, 1.22 -1.22, 0 0 M0 0 C0 0, 0 0, 0 0 M0 0 C0 0, 0 0, 0 0" stroke="#00000000" stroke-width="1" fill="none"></path></g></g><g stroke-linecap="round"><g transform="translate(504.3706215222676 495.62937847773236) rotate(0 1.4989827473958144 -4.371007094050583e-7)" fill-rule="evenodd"><path d="M0 0 L3 3 L3 -3 L0 0" stroke="none" stroke-width="0" fill="#4285f4" fill-rule="evenodd"></path><path d="M0 0 C1.12 1.12, 2.24 2.24, 3 3 M0 0 C0.84 0.84, 1.68 1.68, 3 3 M3 3 C3 0.63, 3 -1.73, 3 -3 M3 3 C3 1.67, 3 0.34, 3 -3 M3 -3 C1.96 -1.96, 0.91 -0.91, 0 0 M3 -3 C2.22 -2.22, 1.43 -1.43, 0 0 M0 0 C0 0, 0 0, 0 0 M0 0 C0 0, 0 0, 0 0" stroke="#00000000" stroke-width="1" fill="none"></path></g></g><g stroke-linecap="round" transform="translate(590 470) rotate(0 110 30)"><path d="M6 0 L216.63 0.38 L218.5 1.5 L220 6 L219.63 56.62 L218.5 58.5 L214 60 L3.38 59.62 L1.5 58.5 L0 54 L0 6 L1.5 1.5 L6 0" stroke="none" stroke-width="0" fill="#FFF"></path><path d="M6 0 M6 0 C61.68 0, 117.35 0, 214 0 M6 0 C82.52 0, 159.04 0, 214 0 M214 0 C218 0, 220 2, 220 6 M214 0 C218 0, 220 2, 220 6 M220 6 C220 19.33, 220 32.66, 220 54 M220 6 C220 20.48, 220 34.96, 220 54 M220 54 C220 58, 218 60, 214 60 M220 54 C220 58, 218 60, 214 60 M214 60 C154.15 60, 94.31 60, 6 60 M214 60 C135.93 60, 57.86 60, 6 60 M6 60 C2 60, 0 58, 0 54 M6 60 C2 60, 0 58, 0 54 M0 54 C0 38.37, 0 22.74, 0 6 M0 54 C0 38.38, 0 22.77, 0 6 M0 6 C0 2, 2 0, 6 0 M0 6 C0 2, 2 0, 6 0" stroke="#202124" stroke-width="1" fill="none"></path></g><g transform="translate(604.6666666666667 484.66666666666674) rotate(0 76 9)"><text x="0" y="14" font-family="GoogleSans_Medium, Segoe UI Emoji" font-size="14.666666666666664px" fill="#1A73E8" text-anchor="start" style="white-space: pre;" direction="ltr">Green Virtual Machine</text></g><g stroke-linecap="round"><g transform="translate(783.3712991078694 485.6361581583817) rotate(0 0.999321977297484 1.998644009232521)" fill-rule="evenodd"><path d="M0 0 L2 0 L2 4 L0 4 L0 0" stroke="none" stroke-width="0" fill="#669df6" fill-rule="evenodd"></path><path d="M0 0 C0.8 0, 1.59 0, 2 0 M0 0 C0.49 0, 0.99 0, 2 0 M2 0 C2 1.03, 2 2.06, 2 4 M2 0 C2 0.92, 2 1.84, 2 4 M2 4 C1.21 4, 0.42 4, 0 4 M2 4 C1.39 4, 0.79 4, 0 4 M0 4 C0 3.02, 0 2.04, 0 0 M0 4 C0 2.92, 0 1.84, 0 0 M0 0 C0 0, 0 0, 0 0 M0 0 C0 0, 0 0, 0 0" stroke="#00000000" stroke-width="1" fill="none"></path></g></g><g stroke-linecap="round"><g transform="translate(779.3740111986795 485.6361581583817) rotate(0 0.999321977297484 1.998644009232521)" fill-rule="evenodd"><path d="M0 0 L2 0 L2 4 L0 4 L0 0" stroke="none" stroke-width="0" fill="#669df6" fill-rule="evenodd"></path><path d="M0 0 C0.63 0, 1.26 0, 2 0 M0 0 C0.4 0, 0.8 0, 2 0 M2 0 C2 1.09, 2 2.18, 2 4 M2 0 C2 1.44, 2 2.87, 2 4 M2 4 C1.45 4, 0.89 4, 0 4 M2 4 C1.55 4, 1.1 4, 0 4 M0 4 C0 3.12, 0 2.25, 0 0 M0 4 C0 2.93, 0 1.86, 0 0 M0 0 C0 0, 0 0, 0 0 M0 0 C0 0, 0 0, 0 0" stroke="#00000000" stroke-width="1" fill="none"></path></g></g><g stroke-linecap="round"><g transform="translate(787.3685870170593 485.6361581583817) rotate(0 0.9993224143981934 1.998644009232521)" fill-rule="evenodd"><path d="M0 0 L2 0 L2 4 L0 4 L0 0" stroke="none" stroke-width="0" fill="#669df6" fill-rule="evenodd"></path><path d="M0 0 C0.61 0, 1.22 0, 2 0 M0 0 C0.71 0, 1.42 0, 2 0 M2 0 C2 1.07, 2 2.14, 2 4 M2 0 C2 1.06, 2 2.12, 2 4 M2 4 C1.44 4, 0.89 4, 0 4 M2 4 C1.46 4, 0.91 4, 0 4 M0 4 C0 2.85, 0 1.7, 0 0 M0 4 C0 3.04, 0 2.08, 0 0 M0 0 C0 0, 0 0, 0 0 M0 0 C0 0, 0 0, 0 0" stroke="#00000000" stroke-width="1" fill="none"></path></g></g><g stroke-linecap="round"><g transform="translate(783.3712991078694 501.6253094673157) rotate(0 0.999321977297484 1.9986439545949395)" fill-rule="evenodd"><path d="M0 0 L2 0 L2 4 L0 4 L0 0" stroke="none" stroke-width="0" fill="#4285f4" fill-rule="evenodd"></path><path d="M0 0 C0.45 0, 0.9 0, 2 0 M0 0 C0.42 0, 0.83 0, 2 0 M2 0 C2 0.94, 2 1.88, 2 4 M2 0 C2 1.22, 2 2.45, 2 4 M2 4 C1.42 4, 0.84 4, 0 4 M2 4 C1.33 4, 0.66 4, 0 4 M0 4 C0 2.63, 0 1.27, 0 0 M0 4 C0 2.53, 0 1.06, 0 0 M0 0 C0 0, 0 0, 0 0 M0 0 C0 0, 0 0, 0 0" stroke="#00000000" stroke-width="1" fill="none"></path></g></g><g stroke-linecap="round"><g transform="translate(779.3740111986795 501.6253094673157) rotate(0 0.999321977297484 1.9986439545949395)" fill-rule="evenodd"><path d="M0 0 L2 0 L2 4 L0 4 L0 0" stroke="none" stroke-width="0" fill="#4285f4" fill-rule="evenodd"></path><path d="M0 0 C0.56 0, 1.11 0, 2 0 M0 0 C0.42 0, 0.85 0, 2 0 M2 0 C2 1.42, 2 2.83, 2 4 M2 0 C2 1.42, 2 2.85, 2 4 M2 4 C1.54 4, 1.09 4, 0 4 M2 4 C1.28 4, 0.56 4, 0 4 M0 4 C0 2.58, 0 1.17, 0 0 M0 4 C0 2.95, 0 1.91, 0 0 M0 0 C0 0, 0 0, 0 0 M0 0 C0 0, 0 0, 0 0" stroke="#00000000" stroke-width="1" fill="none"></path></g></g><g stroke-linecap="round"><g transform="translate(787.3685870170593 501.6253094673157) rotate(0 0.9993224143981934 1.9986439545949395)" fill-rule="evenodd"><path d="M0 0 L2 0 L2 4 L0 4 L0 0" stroke="none" stroke-width="0" fill="#4285f4" fill-rule="evenodd"></path><path d="M0 0 C0.67 0, 1.35 0, 2 0 M0 0 C0.47 0, 0.94 0, 2 0 M2 0 C2 0.99, 2 1.98, 2 4 M2 0 C2 1.17, 2 2.33, 2 4 M2 4 C1.27 4, 0.53 4, 0 4 M2 4 C1.3 4, 0.61 4, 0 4 M0 4 C0 3.06, 0 2.12, 0 0 M0 4 C0 2.94, 0 1.87, 0 0 M0 0 C0 0, 0 0, 0 0 M0 0 C0 0, 0 0, 0 0" stroke="#00000000" stroke-width="1" fill="none"></path></g></g><g stroke-linecap="round"><g transform="translate(790.3665525118508 494.6300569375355) rotate(0 1.998643954594911 0.9993215401967461)" fill-rule="evenodd"><path d="M0 0 L4 0 L4 2 L0 2 L0 0" stroke="none" stroke-width="0" fill="#4285f4" fill-rule="evenodd"></path><path d="M0 0 C1.43 0, 2.86 0, 4 0 M0 0 C1.19 0, 2.38 0, 4 0 M4 0 C4 0.76, 4 1.51, 4 2 M4 0 C4 0.73, 4 1.47, 4 2 M4 2 C2.9 2, 1.8 2, 0 2 M4 2 C2.55 2, 1.1 2, 0 2 M0 2 C0 1.23, 0 0.47, 0 0 M0 2 C0 1.56, 0 1.11, 0 0 M0 0 C0 0, 0 0, 0 0 M0 0 C0 0, 0 0, 0 0" stroke="#00000000" stroke-width="1" fill="none"></path></g></g><g stroke-linecap="round"><g transform="translate(790.3665525118508 498.62734397252393) rotate(0 1.998643954594911 0.9993224143981934)" fill-rule="evenodd"><path d="M0 0 L4 0 L4 2 L0 2 L0 0" stroke="none" stroke-width="0" fill="#4285f4" fill-rule="evenodd"></path><path d="M0 0 C1.07 0, 2.13 0, 4 0 M0 0 C1.21 0, 2.41 0, 4 0 M4 0 C4 0.72, 4 1.43, 4 2 M4 0 C4 0.7, 4 1.41, 4 2 M4 2 C2.59 2, 1.19 2, 0 2 M4 2 C2.96 2, 1.93 2, 0 2 M0 2 C0 1.43, 0 0.85, 0 0 M0 2 C0 1.49, 0 0.99, 0 0 M0 0 C0 0, 0 0, 0 0 M0 0 C0 0, 0 0, 0 0" stroke="#00000000" stroke-width="1" fill="none"></path></g></g><g stroke-linecap="round"><g transform="translate(790.3665525118508 490.6327681541443) rotate(0 1.998643954594911 0.9993219772974555)" fill-rule="evenodd"><path d="M0 0 L4 0 L4 2 L0 2 L0 0" stroke="none" stroke-width="0" fill="#4285f4" fill-rule="evenodd"></path><path d="M0 0 C1.09 0, 2.19 0, 4 0 M0 0 C0.83 0, 1.65 0, 4 0 M4 0 C4 0.65, 4 1.31, 4 2 M4 0 C4 0.68, 4 1.35, 4 2 M4 2 C3.18 2, 2.36 2, 0 2 M4 2 C2.68 2, 1.37 2, 0 2 M0 2 C0 1.39, 0 0.78, 0 0 M0 2 C0 1.34, 0 0.68, 0 0 M0 0 C0 0, 0 0, 0 0 M0 0 C0 0, 0 0, 0 0" stroke="#00000000" stroke-width="1" fill="none"></path></g></g><g stroke-linecap="round"><g transform="translate(774.3774010936418 494.6300569375355) rotate(0 1.998643845319748 0.9993215401967461)" fill-rule="evenodd"><path d="M0 0 L4 0 L4 2 L0 2 L0 0" stroke="none" stroke-width="0" fill="#669df6" fill-rule="evenodd"></path><path d="M0 0 C1.24 0, 2.47 0, 4 0 M0 0 C1.19 0, 2.37 0, 4 0 M4 0 C4 0.74, 4 1.47, 4 2 M4 0 C4 0.43, 4 0.86, 4 2 M4 2 C2.79 2, 1.59 2, 0 2 M4 2 C2.47 2, 0.95 2, 0 2 M0 2 C0 1.25, 0 0.5, 0 0 M0 2 C0 1.25, 0 0.5, 0 0 M0 0 C0 0, 0 0, 0 0 M0 0 C0 0, 0 0, 0 0" stroke="#00000000" stroke-width="1" fill="none"></path></g></g><g stroke-linecap="round"><g transform="translate(774.3774010936418 498.62734397252393) rotate(0 1.998643845319748 0.9993224143981934)" fill-rule="evenodd"><path d="M0 0 L4 0 L4 2 L0 2 L0 0" stroke="none" stroke-width="0" fill="#669df6" fill-rule="evenodd"></path><path d="M0 0 C1.41 0, 2.81 0, 4 0 M0 0 C1.01 0, 2.02 0, 4 0 M4 0 C4 0.42, 4 0.85, 4 2 M4 0 C4 0.6, 4 1.2, 4 2 M4 2 C2.96 2, 1.93 2, 0 2 M4 2 C2.56 2, 1.13 2, 0 2 M0 2 C0 1.33, 0 0.66, 0 0 M0 2 C0 1.37, 0 0.75, 0 0 M0 0 C0 0, 0 0, 0 0 M0 0 C0 0, 0 0, 0 0" stroke="#00000000" stroke-width="1" fill="none"></path></g></g><g stroke-linecap="round"><g transform="translate(774.3774010936418 490.6327681541443) rotate(0 1.998643845319748 0.9993219772974555)" fill-rule="evenodd"><path d="M0 0 L4 0 L4 2 L0 2 L0 0" stroke="none" stroke-width="0" fill="#669df6" fill-rule="evenodd"></path><path d="M0 0 C0.99 0, 1.97 0, 4 0 M0 0 C1.03 0, 2.06 0, 4 0 M4 0 C4 0.46, 4 0.92, 4 2 M4 0 C4 0.79, 4 1.58, 4 2 M4 2 C2.79 2, 1.57 2, 0 2 M4 2 C3.02 2, 2.04 2, 0 2 M0 2 C0 1.46, 0 0.92, 0 0 M0 2 C0 1.36, 0 0.71, 0 0 M0 0 C0 0, 0 0, 0 0 M0 0 C0 0, 0 0, 0 0" stroke="#00000000" stroke-width="1" fill="none"></path></g></g><g stroke-linecap="round"><g transform="translate(777.3753672440846 488.63412419954943) rotate(0 6.995253841082274 6.995253841082246)" fill-rule="evenodd"><path d="M0 0 L0 13.99 L13.99 13.99 L13.99 0 L0 0 L0 0" stroke="none" stroke-width="0" fill="#aecbfa" fill-rule="evenodd"></path><path d="M0 0 C0 2.81, 0 5.63, 0 13.99 M0 0 C0 3.81, 0 7.63, 0 13.99 M0 13.99 C5.03 13.99, 10.06 13.99, 13.99 13.99 M0 13.99 C3.87 13.99, 7.74 13.99, 13.99 13.99 M13.99 13.99 C13.99 10.84, 13.99 7.68, 13.99 0 M13.99 13.99 C13.99 10.93, 13.99 7.86, 13.99 0 M13.99 0 C10.25 0, 6.5 0, 0 0 M13.99 0 C10.66 0, 7.32 0, 0 0 M0 0 C0 0, 0 0, 0 0 M0 0 C0 0, 0 0, 0 0 M0 0 C0 0, 0 0, 0 0 M0 0 C0 0, 0 0, 0 0" stroke="#00000000" stroke-width="1" fill="none"></path></g></g><g stroke-linecap="round"><g transform="translate(789.3672318458557 500.6259888013203) rotate(0 -4.996610323588072 -4.996610323588044)" fill-rule="evenodd"><path d="M0 0 L-9.99 0 L-9.99 -9.99 L0 -9.99 L0 0 L0 0" stroke="none" stroke-width="0" fill="#aecbfa" fill-rule="evenodd"></path><path d="M0 0 C-3.55 0, -7.11 0, -9.99 0 M0 0 C-2.67 0, -5.35 0, -9.99 0 M-9.99 0 C-9.99 -2.64, -9.99 -5.29, -9.99 -9.99 M-9.99 0 C-9.99 -2.78, -9.99 -5.55, -9.99 -9.99 M-9.99 -9.99 C-7.28 -9.99, -4.57 -9.99, 0 -9.99 M-9.99 -9.99 C-7.12 -9.99, -4.24 -9.99, 0 -9.99 M0 -9.99 C0 -7.6, 0 -5.2, 0 0 M0 -9.99 C0 -6.74, 0 -3.48, 0 0 M0 0 C0 0, 0 0, 0 0 M0 0 C0 0, 0 0, 0 0 M0 0 C0 0, 0 0, 0 0 M0 0 C0 0, 0 0, 0 0" stroke="#00000000" stroke-width="1" fill="none"></path></g></g><g stroke-linecap="round"><g transform="translate(789.3672318458557 500.6259888013203) rotate(0 -4.996610323588072 -4.996610323588044)" fill-rule="evenodd"><path d="M0 0 L-9.99 0 L-9.99 -9.99 L0 -9.99 L0 0 L0 0" stroke="none" stroke-width="0" fill="#fff" fill-rule="evenodd"></path><path d="M0 0 C-2.09 0, -4.17 0, -9.99 0 M0 0 C-2.36 0, -4.71 0, -9.99 0 M-9.99 0 C-9.99 -3.06, -9.99 -6.12, -9.99 -9.99 M-9.99 0 C-9.99 -2.89, -9.99 -5.78, -9.99 -9.99 M-9.99 -9.99 C-6.65 -9.99, -3.31 -9.99, 0 -9.99 M-9.99 -9.99 C-6.58 -9.99, -3.17 -9.99, 0 -9.99 M0 -9.99 C0 -6.32, 0 -2.65, 0 0 M0 -9.99 C0 -6.97, 0 -3.94, 0 0 M0 0 C0 0, 0 0, 0 0 M0 0 C0 0, 0 0, 0 0 M0 0 C0 0, 0 0, 0 0 M0 0 C0 0, 0 0, 0 0" stroke="#00000000" stroke-width="1" fill="none"></path></g></g><g stroke-linecap="round"><g transform="translate(781.3726551532745 492.63141210873914) rotate(0 2.997965931892395 2.997965931892395)" fill-rule="evenodd"><path d="M0 0 L6 0 L6 6 L0 6 L0 0" stroke="none" stroke-width="0" fill="#aecbfa" fill-rule="evenodd"></path><path d="M0 0 C1.27 0, 2.54 0, 6 0 M0 0 C2.13 0, 4.25 0, 6 0 M6 0 C6 2.14, 6 4.27, 6 6 M6 0 C6 1.37, 6 2.74, 6 6 M6 6 C3.84 6, 1.69 6, 0 6 M6 6 C3.87 6, 1.75 6, 0 6 M0 6 C0 4.43, 0 2.87, 0 0 M0 6 C0 4.48, 0 2.96, 0 0 M0 0 C0 0, 0 0, 0 0 M0 0 C0 0, 0 0, 0 0" stroke="#00000000" stroke-width="1" fill="none"></path></g></g><g stroke-linecap="round"><g transform="translate(781.3726551532745 498.62734397252393) rotate(0 2.997965931892395 -1.4989827473958428)" fill-rule="evenodd"><path d="M0 0 L6 0 L3 -3 L0 0" stroke="none" stroke-width="0" fill="#669df6" fill-rule="evenodd"></path><path d="M0 0 C1.4 0, 2.81 0, 6 0 M0 0 C1.49 0, 2.97 0, 6 0 M6 0 C5.12 -0.88, 4.25 -1.75, 3 -3 M6 0 C4.9 -1.1, 3.8 -2.2, 3 -3 M3 -3 C1.95 -1.95, 0.91 -0.91, 0 0 M3 -3 C2.3 -2.3, 1.59 -1.59, 0 0 M0 0 C0 0, 0 0, 0 0 M0 0 C0 0, 0 0, 0 0" stroke="#00000000" stroke-width="1" fill="none"></path></g></g><g stroke-linecap="round"><g transform="translate(784.3706215222676 495.6293784777324) rotate(0 1.4989827473958144 -4.371007094050583e-7)" fill-rule="evenodd"><path d="M0 0 L3 3 L3 -3 L0 0" stroke="none" stroke-width="0" fill="#4285f4" fill-rule="evenodd"></path><path d="M0 0 C0.89 0.89, 1.78 1.78, 3 3 M0 0 C1.13 1.13, 2.27 2.27, 3 3 M3 3 C3 0.8, 3 -1.4, 3 -3 M3 3 C3 1.35, 3 -0.3, 3 -3 M3 -3 C1.91 -1.91, 0.82 -0.82, 0 0 M3 -3 C1.85 -1.85, 0.7 -0.7, 0 0 M0 0 C0 0, 0 0, 0 0 M0 0 C0 0, 0 0, 0 0" stroke="#00000000" stroke-width="1" fill="none"></path></g></g><g stroke-linecap="round"><g transform="translate(410 451) rotate(0 0 9.5)"><path d="M0 0 C0 7.49, 0 14.99, 0 19 M0 0 C0 5.7, 0 11.4, 0 19" stroke="#202124" stroke-width="1" fill="none"></path></g><g transform="translate(410 451) rotate(0 0 9.5)"><path d="M0 19 L-4.01 10.39 L4.01 10.39 L0 19" stroke="none" stroke-width="0" fill="#202124" fill-rule="evenodd"></path><path d="M0 19 C-1.58 15.6, -3.17 12.21, -4.01 10.39 M0 19 C-1.2 16.42, -2.41 13.83, -4.01 10.39 M-4.01 10.39 C-2.07 10.39, -0.13 10.39, 4.01 10.39 M-4.01 10.39 C-2.39 10.39, -0.76 10.39, 4.01 10.39 M4.01 10.39 C2.71 13.2, 1.4 16, 0 19 M4.01 10.39 C3.15 12.24, 2.29 14.09, 0 19 M0 19 C0 19, 0 19, 0 19 M0 19 C0 19, 0 19, 0 19" stroke="#202124" stroke-width="1" fill="none"></path></g></g><g stroke-linecap="round"><g transform="translate(710.402989177446 451) rotate(0 -0.2014945887229942 9.5)"><path d="M0 0 C-0.08 3.81, -0.16 7.63, -0.4 19 M0 0 C-0.11 5.04, -0.21 10.09, -0.4 19" stroke="#202124" stroke-width="1" fill="none"></path></g><g transform="translate(710.402989177446 451) rotate(0 -0.2014945887229942 9.5)"><path d="M-0.4 19 L-4.24 10.3 L3.79 10.48 L-0.4 19" stroke="none" stroke-width="0" fill="#202124" fill-rule="evenodd"></path><path d="M-0.4 19 C-1.17 17.26, -1.94 15.51, -4.24 10.3 M-0.4 19 C-1.42 16.69, -2.44 14.38, -4.24 10.3 M-4.24 10.3 C-2.06 10.35, 0.11 10.4, 3.79 10.48 M-4.24 10.3 C-1.67 10.36, 0.89 10.41, 3.79 10.48 M3.79 10.48 C2.53 13.04, 1.27 15.61, -0.4 19 M3.79 10.48 C2.22 13.66, 0.66 16.85, -0.4 19 M-0.4 19 C-0.4 19, -0.4 19, -0.4 19 M-0.4 19 C-0.4 19, -0.4 19, -0.4 19" stroke="#202124" stroke-width="1" fill="none"></path></g></g><g stroke-linecap="round"><g transform="translate(710 530) rotate(0 -90 50)"><path d="M0 0 C0 10.3, 0 20.59, 0 40 M0 0 C0 11.94, 0 23.87, 0 40 M0 40 C-45.88 40, -91.75 40, -180 40 M0 40 C-37.95 40, -75.89 40, -180 40 M-180 40 C-180 63.01, -180 86.02, -180 100 M-180 40 C-180 53.41, -180 66.83, -180 100 M-180 100 C-152.26 100, -124.53 100, -100 100 M-180 100 C-153.77 100, -127.54 100, -100 100" stroke="#202124" stroke-width="1" fill="none"></path></g><g transform="translate(710 530) rotate(0 -90 50)"><path d="M-100 100 L-113.59 106.34 L-113.59 93.66 L-100 100" stroke="none" stroke-width="0" fill="#202124" fill-rule="evenodd"></path><path d="M-100 100 C-103.5 101.63, -107 103.26, -113.59 106.34 M-100 100 C-104.06 101.89, -108.11 103.78, -113.59 106.34 M-113.59 106.34 C-113.59 103.11, -113.59 99.88, -113.59 93.66 M-113.59 106.34 C-113.59 103.67, -113.59 100.99, -113.59 93.66 M-113.59 93.66 C-108.38 96.09, -103.17 98.52, -100 100 M-113.59 93.66 C-110.56 95.08, -107.52 96.5, -100 100 M-100 100 C-100 100, -100 100, -100 100 M-100 100 C-100 100, -100 100, -100 100" stroke="#202124" stroke-width="1" fill="none"></path></g></g><g stroke-linecap="round"><g transform="translate(410 530) rotate(0 100 90)"><path d="M0 0 C0 11.94, 0 23.88, 0 40 M0 0 C0 15.25, 0 30.51, 0 40 M0 40 C40.75 40, 81.49 40, 120 40 M0 40 C43.02 40, 86.04 40, 120 40 M120 40 C120 84.05, 120 128.1, 120 180 M120 40 C120 90.26, 120 140.52, 120 180 M120 180 C143.84 180, 167.69 180, 200 180 M120 180 C149.25 180, 178.51 180, 200 180" stroke="#202124" stroke-width="1" fill="none"></path></g><g transform="translate(410 530) rotate(0 100 90)"><path d="M200 180 L186.41 186.34 L186.41 173.66 L200 180" stroke="none" stroke-width="0" fill="#202124" fill-rule="evenodd"></path><path d="M200 180 C195.94 181.89, 191.89 183.78, 186.41 186.34 M200 180 C194.82 182.42, 189.63 184.84, 186.41 186.34 M186.41 186.34 C186.41 182.03, 186.41 177.73, 186.41 173.66 M186.41 186.34 C186.41 181.79, 186.41 177.25, 186.41 173.66 M186.41 173.66 C190.68 175.66, 194.96 177.65, 200 180 M186.41 173.66 C191.29 175.94, 196.17 178.21, 200 180 M200 180 C200 180, 200 180, 200 180 M200 180 C200 180, 200 180, 200 180" stroke="#202124" stroke-width="1" fill="none"></path></g></g><g stroke-linecap="round" transform="translate(490 670) rotate(0 16 16)"><path d="M32 16 C32 16.93, 31.92 17.87, 31.76 18.78 C31.6 19.69, 31.35 20.6, 31.04 21.47 C30.72 22.34, 30.32 23.2, 29.86 24 C29.39 24.8, 28.85 25.58, 28.26 26.28 C27.66 26.99, 26.99 27.66, 26.28 28.26 C25.58 28.85, 24.8 29.39, 24 29.86 C23.2 30.32, 22.34 30.72, 21.47 31.04 C20.6 31.35, 19.69 31.6, 18.78 31.76 C17.87 31.92, 16.93 32, 16 32 C15.07 32, 14.13 31.92, 13.22 31.76 C12.31 31.6, 11.4 31.35, 10.53 31.04 C9.66 30.72, 8.8 30.32, 8 29.86 C7.2 29.39, 6.42 28.85, 5.72 28.26 C5.01 27.66, 4.34 26.99, 3.74 26.28 C3.15 25.58, 2.61 24.8, 2.14 24 C1.68 23.2, 1.28 22.34, 0.96 21.47 C0.65 20.6, 0.4 19.69, 0.24 18.78 C0.08 17.87, 0 16.93, 0 16 C0 15.07, 0.08 14.13, 0.24 13.22 C0.4 12.31, 0.65 11.4, 0.96 10.53 C1.28 9.66, 1.68 8.8, 2.14 8 C2.61 7.2, 3.15 6.42, 3.74 5.72 C4.34 5.01, 5.01 4.34, 5.72 3.74 C6.42 3.15, 7.2 2.61, 8 2.14 C8.8 1.68, 9.66 1.28, 10.53 0.96 C11.4 0.65, 12.31 0.4, 13.22 0.24 C14.13 0.08, 15.07 0, 16 0 C16.93 0, 17.87 0.08, 18.78 0.24 C19.69 0.4, 20.6 0.65, 21.47 0.96 C22.34 1.28, 23.2 1.68, 24 2.14 C24.8 2.61, 25.58 3.15, 26.28 3.74 C26.99 4.34, 27.66 5.01, 28.26 5.72 C28.85 6.42, 29.39 7.2, 29.86 8 C30.32 8.8, 30.72 9.66, 31.04 10.53 C31.35 11.4, 31.6 12.31, 31.76 13.22 C31.92 14.13, 31.96 15.54, 32 16 C32.04 16.46, 32.04 15.54, 32 16" stroke="none" stroke-width="0" fill="#202124"></path><path d="M32 16 C32 16.93, 31.92 17.87, 31.76 18.78 C31.6 19.69, 31.35 20.6, 31.04 21.47 C30.72 22.34, 30.32 23.2, 29.86 24 C29.39 24.8, 28.85 25.58, 28.26 26.28 C27.66 26.99, 26.99 27.66, 26.28 28.26 C25.58 28.85, 24.8 29.39, 24 29.86 C23.2 30.32, 22.34 30.72, 21.47 31.04 C20.6 31.35, 19.69 31.6, 18.78 31.76 C17.87 31.92, 16.93 32, 16 32 C15.07 32, 14.13 31.92, 13.22 31.76 C12.31 31.6, 11.4 31.35, 10.53 31.04 C9.66 30.72, 8.8 30.32, 8 29.86 C7.2 29.39, 6.42 28.85, 5.72 28.26 C5.01 27.66, 4.34 26.99, 3.74 26.28 C3.15 25.58, 2.61 24.8, 2.14 24 C1.68 23.2, 1.28 22.34, 0.96 21.47 C0.65 20.6, 0.4 19.69, 0.24 18.78 C0.08 17.87, 0 16.93, 0 16 C0 15.07, 0.08 14.13, 0.24 13.22 C0.4 12.31, 0.65 11.4, 0.96 10.53 C1.28 9.66, 1.68 8.8, 2.14 8 C2.61 7.2, 3.15 6.42, 3.74 5.72 C4.34 5.01, 5.01 4.34, 5.72 3.74 C6.42 3.15, 7.2 2.61, 8 2.14 C8.8 1.68, 9.66 1.28, 10.53 0.96 C11.4 0.65, 12.31 0.4, 13.22 0.24 C14.13 0.08, 15.07 0, 16 0 C16.93 0, 17.87 0.08, 18.78 0.24 C19.69 0.4, 20.6 0.65, 21.47 0.96 C22.34 1.28, 23.2 1.68, 24 2.14 C24.8 2.61, 25.58 3.15, 26.28 3.74 C26.99 4.34, 27.66 5.01, 28.26 5.72 C28.85 6.42, 29.39 7.2, 29.86 8 C30.32 8.8, 30.72 9.66, 31.04 10.53 C31.35 11.4, 31.6 12.31, 31.76 13.22 C31.92 14.13, 31.96 15.54, 32 16 C32.04 16.46, 32.04 15.54, 32 16" stroke="#202124" stroke-width="2" fill="none"></path></g><g transform="translate(500.5 678) rotate(0 4.5 8)"><text x="4.5" y="13" font-family="Helvetica, Segoe UI Emoji" font-size="14px" fill="#FFFFFF" text-anchor="middle" style="white-space: pre;" direction="ltr">3</text></g></svg>